# Beveled gear / 倒角齿轮
v 0.45 -0.1 0
v 0.44903651545737155 -0.1 0.02943140815356438
v 0.4461501876182147 -0.1 0.05873678649902321
v 0.4413533761814537 -0.1 0.08779064490725771
v 0.43466662183008076 -0.1 0.11646857029613433
v 0.42611855827279754 -0.1 0.14464775938642271
v 0.415745789630079 -0.1 0.1722075445642904
v 0.4035927336897097 -0.1 0.1990299105985506
v 0.38971143170299744 -0.1 0.22499999999999998
v 0.37416132553614534 -0.1 0.250006604858821
v 0.3570090031310558 -0.1 0.2739426430539243
v 0.33832791336553986 -0.1 0.296705616795031
v 0.3181980515339464 -0.1 0.31819805153394637
v 0.29670561679503105 -0.1 0.3383279133655398
v 0.2739426430539243 -0.1 0.3570090031310558
v 0.25000660485882104 -0.1 0.37416132553614534
v 0.22500000000000006 -0.1 0.3897114317029974
v 0.19902991059855057 -0.1 0.40359273368970977
v 0.17220754456429044 -0.1 0.415745789630079
v 0.14464775938642277 -0.1 0.42611855827279754
v 0.11646857029613433 -0.1 0.43466662183008076
v 0.08779064490725776 -0.1 0.4413533761814537
v 0.05873678649902327 -0.1 0.4461501876182147
v 0.029431408153564372 -0.1 0.44903651545737155
v 2.7554552980815448e-17 -0.1 0.45
v -0.029431408153564417 -0.1 0.44903651545737155
v -0.05873678649902312 -0.1 0.44615018761821473
v -0.08779064490725769 -0.1 0.4413533761814537
v -0.11646857029613439 -0.1 0.43466662183008076
v -0.14464775938642263 -0.1 0.42611855827279754
v -0.17220754456429038 -0.1 0.415745789630079
v -0.19902991059855052 -0.1 0.40359273368970977
v -0.2249999999999999 -0.1 0.38971143170299744
v -0.25000660485882087 -0.1 0.3741613255361454
v -0.2739426430539243 -0.1 0.3570090031310558
v -0.296705616795031 -0.1 0.33832791336553986
v -0.31819805153394637 -0.1 0.3181980515339464
v -0.3383279133655398 -0.1 0.29670561679503105
v -0.35700900313105577 -0.1 0.2739426430539244
v -0.3741613255361454 -0.1 0.250006604858821
v -0.38971143170299744 -0.1 0.22499999999999998
v -0.4035927336897097 -0.1 0.1990299105985506
v -0.415745789630079 -0.1 0.17220754456429047
v -0.42611855827279754 -0.1 0.1446477593864228
v -0.4346666218300807 -0.1 0.11646857029613446
v -0.4413533761814537 -0.1 0.08779064490725788
v -0.4461501876182147 -0.1 0.05873678649902321
v -0.44903651545737155 -0.1 0.029431408153564403
v -0.45 -0.1 5.5109105961630896e-17
v -0.44903651545737155 -0.1 -0.029431408153564292
v -0.4461501876182147 -0.1 -0.058736786499023294
v -0.4413533761814537 -0.1 -0.08779064490725777
v -0.4346666218300808 -0.1 -0.11646857029613417
v -0.42611855827279754 -0.1 -0.1446477593864227
v -0.4157457896300791 -0.1 -0.17220754456429035
v -0.40359273368970977 -0.1 -0.1990299105985505
v -0.3897114317029974 -0.1 -0.22500000000000006
v -0.37416132553614545 -0.1 -0.25000660485882087
v -0.35700900313105594 -0.1 -0.27394264305392413
v -0.33832791336553986 -0.1 -0.296705616795031
v -0.3181980515339465 -0.1 -0.31819805153394637
v -0.2967056167950311 -0.1 -0.3383279133655398
v -0.2739426430539244 -0.1 -0.3570090031310557
v -0.250006604858821 -0.1 -0.37416132553614534
v -0.2250000000000002 -0.1 -0.3897114317029973
v -0.1990299105985506 -0.1 -0.4035927336897097
v -0.17220754456429066 -0.1 -0.41574578963007897
v -0.14464775938642283 -0.1 -0.42611855827279754
v -0.11646857029613429 -0.1 -0.43466662183008076
v -0.0877906449072579 -0.1 -0.44135337618145365
v -0.05873678649902323 -0.1 -0.4461501876182147
v -0.02943140815356423 -0.1 -0.44903651545737155
v -8.266365894244634e-17 -0.1 -0.45
v 0.029431408153564067 -0.1 -0.4490365154573716
v 0.05873678649902307 -0.1 -0.44615018761821473
v 0.08779064490725774 -0.1 -0.4413533761814537
v 0.11646857029613414 -0.1 -0.4346666218300808
v 0.14464775938642266 -0.1 -0.42611855827279754
v 0.1722075445642905 -0.1 -0.41574578963007897
v 0.19902991059855046 -0.1 -0.4035927336897098
v 0.22500000000000006 -0.1 -0.3897114317029974
v 0.2500066048588208 -0.1 -0.37416132553614545
v 0.27394264305392424 -0.1 -0.3570090031310558
v 0.2967056167950311 -0.1 -0.33832791336553975
v 0.3181980515339463 -0.1 -0.3181980515339465
v 0.33832791336553963 -0.1 -0.2967056167950312
v 0.3570090031310557 -0.1 -0.2739426430539244
v 0.37416132553614534 -0.1 -0.250006604858821
v 0.38971143170299727 -0.1 -0.2250000000000002
v 0.4035927336897097 -0.1 -0.19902991059855063
v 0.41574578963007897 -0.1 -0.1722075445642907
v 0.42611855827279754 -0.1 -0.14464775938642285
v 0.43466662183008076 -0.1 -0.1164685702961343
v 0.44135337618145365 -0.1 -0.08779064490725792
v 0.4461501876182147 -0.1 -0.05873678649902326
v 0.44903651545737155 -0.1 -0.02943140815356426
v 0.5 -0.16 0
v 0.49892946161930174 -0.16 0.03270156461507153
v 0.4957224306869052 -0.16 0.06526309611002579
v 0.4903926402016152 -0.16 0.09754516100806412
v 0.48296291314453416 -0.16 0.12940952255126037
v 0.47346506474755284 -0.16 0.1607197326515808
v 0.46193976625564337 -0.16 0.1913417161825449
v 0.44843637076634413 -0.16 0.22114434510950065
v 0.43301270189221935 -0.16 0.24999999999999997
v 0.4157348061512726 -0.16 0.2777851165098011
v 0.3966766701456176 -0.16 0.30438071450436033
v 0.3759199037394887 -0.16 0.3296729075500344
v 0.3535533905932738 -0.16 0.35355339059327373
v 0.3296729075500345 -0.16 0.37591990373948864
v 0.30438071450436033 -0.16 0.3966766701456176
v 0.27778511650980114 -0.16 0.4157348061512726
v 0.25000000000000006 -0.16 0.4330127018922193
v 0.22114434510950062 -0.16 0.4484363707663442
v 0.19134171618254492 -0.16 0.46193976625564337
v 0.16071973265158085 -0.16 0.4734650647475528
v 0.12940952255126037 -0.16 0.48296291314453416
v 0.09754516100806417 -0.16 0.4903926402016152
v 0.06526309611002586 -0.16 0.4957224306869052
v 0.032701564615071524 -0.16 0.49892946161930174
v 3.061616997868383e-17 -0.16 0.5
v -0.03270156461507157 -0.16 0.49892946161930174
v -0.06526309611002569 -0.16 0.49572243068690525
v -0.0975451610080641 -0.16 0.4903926402016152
v -0.12940952255126043 -0.16 0.48296291314453416
v -0.16071973265158068 -0.16 0.47346506474755284
v -0.19134171618254486 -0.16 0.46193976625564337
v -0.22114434510950057 -0.16 0.4484363707663442
v -0.2499999999999999 -0.16 0.43301270189221935
v -0.277785116509801 -0.16 0.4157348061512727
v -0.30438071450436033 -0.16 0.3966766701456176
v -0.3296729075500344 -0.16 0.3759199037394887
v -0.35355339059327373 -0.16 0.3535533905932738
v -0.37591990373948864 -0.16 0.3296729075500345
v -0.3966766701456175 -0.16 0.30438071450436044
v -0.4157348061512727 -0.16 0.2777851165098011
v -0.43301270189221935 -0.16 0.24999999999999997
v -0.44843637076634413 -0.16 0.22114434510950065
v -0.46193976625564337 -0.16 0.19134171618254495
v -0.4734650647475528 -0.16 0.16071973265158088
v -0.4829629131445341 -0.16 0.1294095225512605
v -0.4903926402016152 -0.16 0.0975451610080643
v -0.4957224306869052 -0.16 0.06526309611002579
v -0.49892946161930174 -0.16 0.03270156461507156
v -0.5 -0.16 6.123233995736766e-17
v -0.49892946161930174 -0.16 -0.032701564615071434
v -0.4957224306869052 -0.16 -0.06526309611002588
v -0.4903926402016152 -0.16 -0.09754516100806418
v -0.4829629131445342 -0.16 -0.12940952255126018
v -0.47346506474755284 -0.16 -0.16071973265158077
v -0.4619397662556434 -0.16 -0.19134171618254484
v -0.4484363707663442 -0.16 -0.22114434510950054
v -0.4330127018922193 -0.16 -0.25000000000000006
v -0.41573480615127273 -0.16 -0.277785116509801
v -0.3966766701456177 -0.16 -0.30438071450436016
v -0.3759199037394887 -0.16 -0.3296729075500344
v -0.35355339059327384 -0.16 -0.35355339059327373
v -0.32967290755003453 -0.16 -0.37591990373948864
v -0.30438071450436044 -0.16 -0.39667667014561747
v -0.2777851165098011 -0.16 -0.4157348061512726
v -0.2500000000000002 -0.16 -0.43301270189221924
v -0.22114434510950068 -0.16 -0.44843637076634413
v -0.19134171618254517 -0.16 -0.46193976625564326
v -0.1607197326515809 -0.16 -0.4734650647475528
v -0.12940952255126031 -0.16 -0.48296291314453416
v -0.09754516100806433 -0.16 -0.49039264020161516
v -0.06526309611002581 -0.16 -0.4957224306869052
v -0.032701564615071364 -0.16 -0.49892946161930174
v -9.184850993605148e-17 -0.16 -0.5
v 0.032701564615071184 -0.16 -0.4989294616193018
v 0.06526309611002563 -0.16 -0.49572243068690525
v 0.09754516100806415 -0.16 -0.4903926402016152
v 0.12940952255126015 -0.16 -0.4829629131445342
v 0.16071973265158074 -0.16 -0.47346506474755284
v 0.191341716182545 -0.16 -0.4619397662556433
v 0.2211443451095005 -0.16 -0.44843637076634424
v 0.25000000000000006 -0.16 -0.4330127018922193
v 0.2777851165098009 -0.16 -0.41573480615127273
v 0.3043807145043603 -0.16 -0.3966766701456176
v 0.32967290755003453 -0.16 -0.3759199037394886
v 0.3535533905932737 -0.16 -0.35355339059327384
v 0.37591990373948847 -0.16 -0.3296729075500347
v 0.39667667014561747 -0.16 -0.30438071450436044
v 0.4157348061512726 -0.16 -0.2777851165098011
v 0.4330127018922192 -0.16 -0.2500000000000002
v 0.44843637076634413 -0.16 -0.2211443451095007
v 0.46193976625564326 -0.16 -0.1913417161825452
v 0.4734650647475528 -0.16 -0.16071973265158093
v 0.48296291314453416 -0.16 -0.12940952255126034
v 0.49039264020161516 -0.16 -0.09754516100806436
v 0.4957224306869052 -0.16 -0.06526309611002584
v 0.49892946161930174 -0.16 -0.0327015646150714
v 1.4137142857142857 -0.16 0
v 1.2373450648158684 -0.16 0.0810998802453774
v 1.2293916281035249 -0.16 0.16185247835286395
v 1.2161737477000056 -0.16 0.24191199929999901
v 1.3655431395652313 -0.16 0.3658961814763636
v 1.174193360573931 -0.16 0.39858493697592035
v 1.1456106203139955 -0.16 0.4745274561327113
v 1.1121221995005335 -0.16 0.5484379758715616
v 1.2243124851215437 -0.16 0.7068571428571427
v 1.0310223192551562 -0.16 0.6889070889443067
v 0.9837581419611316 -0.16 0.7548641719708136
v 0.9322813612739319 -0.16 0.8175888107240854
v 0.9996469580888678 -0.16 0.9996469580888676
v 0.8175888107240855 -0.16 0.9322813612739318
v 0.7548641719708136 -0.16 0.9837581419611316
v 0.6889070889443069 -0.16 1.0310223192551562
v 0.706857142857143 -0.16 1.2243124851215434
v 0.5484379758715615 -0.16 1.1121221995005335
v 0.4745274561327114 -0.16 1.1456106203139955
v 0.3985849369759205 -0.16 1.174193360573931
v 0.3658961814763636 -0.16 1.3655431395652313
v 0.24191199929999913 -0.16 1.2161737477000056
v 0.16185247835286412 -0.16 1.2293916281035249
v 0.08109988024537738 -0.16 1.2373450648158684
v 8.656503374544434e-17 -0.16 1.4137142857142857
v -0.0810998802453775 -0.16 1.2373450648158684
v -0.1618524783528637 -0.16 1.229391628103525
v -0.24191199929999896 -0.16 1.2161737477000056
v -0.36589618147636377 -0.16 1.3655431395652313
v -0.39858493697592007 -0.16 1.174193360573931
v -0.47452745613271125 -0.16 1.1456106203139955
v -0.5484379758715614 -0.16 1.1121221995005335
v -0.7068571428571425 -0.16 1.2243124851215437
v -0.6889070889443064 -0.16 1.0310223192551562
v -0.7548641719708136 -0.16 0.9837581419611316
v -0.8175888107240854 -0.16 0.9322813612739319
v -0.9996469580888676 -0.16 0.9996469580888678
v -0.9322813612739318 -0.16 0.8175888107240855
v -0.9837581419611314 -0.16 0.7548641719708139
v -1.0310223192551562 -0.16 0.6889070889443067
v -1.2243124851215437 -0.16 0.7068571428571427
v -1.1121221995005335 -0.16 0.5484379758715616
v -1.1456106203139955 -0.16 0.47452745613271147
v -1.174193360573931 -0.16 0.39858493697592057
v -1.3655431395652313 -0.16 0.365896181476364
v -1.2161737477000056 -0.16 0.2419119992999995
v -1.2293916281035249 -0.16 0.16185247835286395
v -1.2373450648158684 -0.16 0.08109988024537747
v -1.4137142857142857 -0.16 1.7313006749088868e-16
v -1.2373450648158684 -0.16 -0.08109988024537715
v -1.2293916281035249 -0.16 -0.1618524783528642
v -1.2161737477000056 -0.16 -0.24191199929999915
v -1.3655431395652315 -0.16 -0.36589618147636305
v -1.174193360573931 -0.16 -0.3985849369759203
v -1.1456106203139957 -0.16 -0.4745274561327112
v -1.1121221995005335 -0.16 -0.5484379758715613
v -1.2243124851215434 -0.16 -0.706857142857143
v -1.0310223192551564 -0.16 -0.6889070889443064
v -0.9837581419611319 -0.16 -0.7548641719708132
v -0.9322813612739319 -0.16 -0.8175888107240854
v -0.9996469580888679 -0.16 -0.9996469580888676
v -0.8175888107240856 -0.16 -0.9322813612739318
v -0.7548641719708139 -0.16 -0.9837581419611313
v -0.6889070889443067 -0.16 -1.0310223192551562
v -0.7068571428571435 -0.16 -1.2243124851215432
v -0.5484379758715617 -0.16 -1.1121221995005335
v -0.474527456132712 -0.16 -1.1456106203139953
v -0.3985849369759206 -0.16 -1.174193360573931
v -0.36589618147636344 -0.16 -1.3655431395652313
v -0.24191199929999954 -0.16 -1.2161737477000056
v -0.161852478352864 -0.16 -1.2293916281035249
v -0.08109988024537698 -0.16 -1.2373450648158684
v -2.59695101236333e-16 -0.16 -1.4137142857142857
v 0.08109988024537654 -0.16 -1.2373450648158684
v 0.16185247835286357 -0.16 -1.229391628103525
v 0.2419119992999991 -0.16 -1.2161737477000056
v 0.365896181476363 -0.16 -1.3655431395652315
v 0.39858493697592023 -0.16 -1.174193360573931
v 0.4745274561327116 -0.16 -1.1456106203139955
v 0.5484379758715613 -0.16 -1.1121221995005337
v 0.706857142857143 -0.16 -1.2243124851215434
v 0.6889070889443063 -0.16 -1.0310223192551564
v 0.7548641719708135 -0.16 -0.9837581419611316
v 0.8175888107240856 -0.16 -0.9322813612739317
v 0.9996469580888675 -0.16 -0.9996469580888679
v 0.9322813612739314 -0.16 -0.8175888107240861
v 0.9837581419611313 -0.16 -0.7548641719708139
v 1.0310223192551562 -0.16 -0.6889070889443067
v 1.2243124851215432 -0.16 -0.7068571428571435
v 1.1121221995005335 -0.16 -0.5484379758715617
v 1.1456106203139953 -0.16 -0.4745274561327121
v 1.174193360573931 -0.16 -0.39858493697592073
v 1.3655431395652313 -0.16 -0.36589618147636355
v 1.2161737477000056 -0.16 -0.2419119992999996
v 1.2293916281035249 -0.16 -0.1618524783528641
v 1.2373450648158684 -0.16 -0.08109988024537707
v 1.4900000000000002 -0.1 0
v 1.2972166002101846 -0.1 0.08502406799918598
v 1.2888783197859535 -0.1 0.16968404988606706
v 1.2750208645241996 -0.1 0.2536174186209667
v 1.439229481170712 -0.1 0.38564037720275596
v 1.2310091683436375 -0.1 0.41787130489411006
v 1.2010433922646728 -0.1 0.4974884620746167
v 1.1659345639924947 -0.1 0.5749752972847018
v 1.2903778516388138 -0.1 0.745
v 1.080910495993309 -0.1 0.7222413029254828
v 1.0313593423786058 -0.1 0.7913898577113369
v 0.9773917497226706 -0.1 0.8571495596300895
v 1.0535891039679561 -0.1 1.053589103967956
v 0.8571495596300897 -0.1 0.9773917497226705
v 0.7913898577113369 -0.1 1.0313593423786058
v 0.722241302925483 -0.1 1.080910495993309
v 0.7450000000000002 -0.1 1.2903778516388138
v 0.5749752972847016 -0.1 1.165934563992495
v 0.49748846207461683 -0.1 1.2010433922646728
v 0.41787130489411023 -0.1 1.2310091683436373
v 0.38564037720275596 -0.1 1.439229481170712
v 0.2536174186209668 -0.1 1.2750208645241996
v 0.16968404988606722 -0.1 1.2888783197859535
v 0.08502406799918596 -0.1 1.2972166002101846
v 9.123618653647782e-17 -0.1 1.4900000000000002
v -0.08502406799918609 -0.1 1.2972166002101846
v -0.1696840498860668 -0.1 1.2888783197859537
v -0.25361741862096665 -0.1 1.2750208645241996
v -0.3856403772027561 -0.1 1.439229481170712
v -0.4178713048941098 -0.1 1.2310091683436375
v -0.49748846207461667 -0.1 1.2010433922646728
v -0.5749752972847015 -0.1 1.165934563992495
v -0.7449999999999998 -0.1 1.2903778516388138
v -0.7222413029254826 -0.1 1.080910495993309
v -0.7913898577113369 -0.1 1.0313593423786058
v -0.8571495596300895 -0.1 0.9773917497226706
v -1.053589103967956 -0.1 1.0535891039679561
v -0.9773917497226705 -0.1 0.8571495596300897
v -1.0313593423786056 -0.1 0.7913898577113372
v -1.080910495993309 -0.1 0.7222413029254828
v -1.2903778516388138 -0.1 0.745
v -1.1659345639924947 -0.1 0.5749752972847018
v -1.2010433922646728 -0.1 0.4974884620746169
v -1.2310091683436373 -0.1 0.4178713048941103
v -1.4392294811707118 -0.1 0.38564037720275635
v -1.2750208645241996 -0.1 0.2536174186209672
v -1.2888783197859535 -0.1 0.16968404988606706
v -1.2972166002101846 -0.1 0.08502406799918606
v -1.4900000000000002 -0.1 1.8247237307295564e-16
v -1.2972166002101846 -0.1 -0.08502406799918573
v -1.2888783197859535 -0.1 -0.1696840498860673
v -1.2750208645241996 -0.1 -0.2536174186209669
v -1.4392294811707123 -0.1 -0.3856403772027554
v -1.2310091683436375 -0.1 -0.41787130489411
v -1.201043392264673 -0.1 -0.4974884620746166
v -1.165934563992495 -0.1 -0.5749752972847014
v -1.2903778516388138 -0.1 -0.7450000000000002
v -1.0809104959933091 -0.1 -0.7222413029254826
v -1.031359342378606 -0.1 -0.7913898577113364
v -0.9773917497226706 -0.1 -0.8571495596300895
v -1.0535891039679561 -0.1 -1.053589103967956
v -0.8571495596300898 -0.1 -0.9773917497226705
v -0.7913898577113372 -0.1 -1.0313593423786054
v -0.7222413029254828 -0.1 -1.080910495993309
v -0.7450000000000008 -0.1 -1.2903778516388136
v -0.5749752972847018 -0.1 -1.1659345639924947
v -0.49748846207461744 -0.1 -1.2010433922646726
v -0.41787130489411034 -0.1 -1.2310091683436373
v -0.3856403772027558 -0.1 -1.439229481170712
v -0.25361741862096726 -0.1 -1.2750208645241994
v -0.1696840498860671 -0.1 -1.2888783197859535
v -0.08502406799918555 -0.1 -1.2972166002101846
v -2.7370855960943346e-16 -0.1 -1.4900000000000002
v 0.08502406799918508 -0.1 -1.2972166002101848
v 0.16968404988606667 -0.1 -1.2888783197859537
v 0.2536174186209668 -0.1 -1.2750208645241996
v 0.3856403772027553 -0.1 -1.4392294811707123
v 0.41787130489410995 -0.1 -1.2310091683436375
v 0.497488462074617 -0.1 -1.2010433922646726
v 0.5749752972847013 -0.1 -1.165934563992495
v 0.7450000000000002 -0.1 -1.2903778516388138
v 0.7222413029254824 -0.1 -1.0809104959933091
v 0.7913898577113367 -0.1 -1.0313593423786058
v 0.8571495596300898 -0.1 -0.9773917497226704
v 1.0535891039679557 -0.1 -1.0535891039679561
v 0.9773917497226701 -0.1 -0.8571495596300902
v 1.0313593423786054 -0.1 -0.7913898577113372
v 1.080910495993309 -0.1 -0.7222413029254828
v 1.2903778516388134 -0.1 -0.7450000000000008
v 1.1659345639924947 -0.1 -0.5749752972847019
v 1.2010433922646726 -0.1 -0.49748846207461755
v 1.2310091683436373 -0.1 -0.41787130489411045
v 1.439229481170712 -0.1 -0.3856403772027559
v 1.2750208645241994 -0.1 -0.25361741862096737
v 1.2888783197859535 -0.1 -0.1696840498860672
v 1.2972166002101846 -0.1 -0.08502406799918565
v 1.4900000000000002 0.1 0
v 1.2972166002101846 0.1 0.08502406799918598
v 1.2888783197859535 0.1 0.16968404988606706
v 1.2750208645241996 0.1 0.2536174186209667
v 1.439229481170712 0.1 0.38564037720275596
v 1.2310091683436375 0.1 0.41787130489411006
v 1.2010433922646728 0.1 0.4974884620746167
v 1.1659345639924947 0.1 0.5749752972847018
v 1.2903778516388138 0.1 0.745
v 1.080910495993309 0.1 0.7222413029254828
v 1.0313593423786058 0.1 0.7913898577113369
v 0.9773917497226706 0.1 0.8571495596300895
v 1.0535891039679561 0.1 1.053589103967956
v 0.8571495596300897 0.1 0.9773917497226705
v 0.7913898577113369 0.1 1.0313593423786058
v 0.722241302925483 0.1 1.080910495993309
v 0.7450000000000002 0.1 1.2903778516388138
v 0.5749752972847016 0.1 1.165934563992495
v 0.49748846207461683 0.1 1.2010433922646728
v 0.41787130489411023 0.1 1.2310091683436373
v 0.38564037720275596 0.1 1.439229481170712
v 0.2536174186209668 0.1 1.2750208645241996
v 0.16968404988606722 0.1 1.2888783197859535
v 0.08502406799918596 0.1 1.2972166002101846
v 9.123618653647782e-17 0.1 1.4900000000000002
v -0.08502406799918609 0.1 1.2972166002101846
v -0.1696840498860668 0.1 1.2888783197859537
v -0.25361741862096665 0.1 1.2750208645241996
v -0.3856403772027561 0.1 1.439229481170712
v -0.4178713048941098 0.1 1.2310091683436375
v -0.49748846207461667 0.1 1.2010433922646728
v -0.5749752972847015 0.1 1.165934563992495
v -0.7449999999999998 0.1 1.2903778516388138
v -0.7222413029254826 0.1 1.080910495993309
v -0.7913898577113369 0.1 1.0313593423786058
v -0.8571495596300895 0.1 0.9773917497226706
v -1.053589103967956 0.1 1.0535891039679561
v -0.9773917497226705 0.1 0.8571495596300897
v -1.0313593423786056 0.1 0.7913898577113372
v -1.080910495993309 0.1 0.7222413029254828
v -1.2903778516388138 0.1 0.745
v -1.1659345639924947 0.1 0.5749752972847018
v -1.2010433922646728 0.1 0.4974884620746169
v -1.2310091683436373 0.1 0.4178713048941103
v -1.4392294811707118 0.1 0.38564037720275635
v -1.2750208645241996 0.1 0.2536174186209672
v -1.2888783197859535 0.1 0.16968404988606706
v -1.2972166002101846 0.1 0.08502406799918606
v -1.4900000000000002 0.1 1.8247237307295564e-16
v -1.2972166002101846 0.1 -0.08502406799918573
v -1.2888783197859535 0.1 -0.1696840498860673
v -1.2750208645241996 0.1 -0.2536174186209669
v -1.4392294811707123 0.1 -0.3856403772027554
v -1.2310091683436375 0.1 -0.41787130489411
v -1.201043392264673 0.1 -0.4974884620746166
v -1.165934563992495 0.1 -0.5749752972847014
v -1.2903778516388138 0.1 -0.7450000000000002
v -1.0809104959933091 0.1 -0.7222413029254826
v -1.031359342378606 0.1 -0.7913898577113364
v -0.9773917497226706 0.1 -0.8571495596300895
v -1.0535891039679561 0.1 -1.053589103967956
v -0.8571495596300898 0.1 -0.9773917497226705
v -0.7913898577113372 0.1 -1.0313593423786054
v -0.7222413029254828 0.1 -1.080910495993309
v -0.7450000000000008 0.1 -1.2903778516388136
v -0.5749752972847018 0.1 -1.1659345639924947
v -0.49748846207461744 0.1 -1.2010433922646726
v -0.41787130489411034 0.1 -1.2310091683436373
v -0.3856403772027558 0.1 -1.439229481170712
v -0.25361741862096726 0.1 -1.2750208645241994
v -0.1696840498860671 0.1 -1.2888783197859535
v -0.08502406799918555 0.1 -1.2972166002101846
v -2.7370855960943346e-16 0.1 -1.4900000000000002
v 0.08502406799918508 0.1 -1.2972166002101848
v 0.16968404988606667 0.1 -1.2888783197859537
v 0.2536174186209668 0.1 -1.2750208645241996
v 0.3856403772027553 0.1 -1.4392294811707123
v 0.41787130489410995 0.1 -1.2310091683436375
v 0.497488462074617 0.1 -1.2010433922646726
v 0.5749752972847013 0.1 -1.165934563992495
v 0.7450000000000002 0.1 -1.2903778516388138
v 0.7222413029254824 0.1 -1.0809104959933091
v 0.7913898577113367 0.1 -1.0313593423786058
v 0.8571495596300898 0.1 -0.9773917497226704
v 1.0535891039679557 0.1 -1.0535891039679561
v 0.9773917497226701 0.1 -0.8571495596300902
v 1.0313593423786054 0.1 -0.7913898577113372
v 1.080910495993309 0.1 -0.7222413029254828
v 1.2903778516388134 0.1 -0.7450000000000008
v 1.1659345639924947 0.1 -0.5749752972847019
v 1.2010433922646726 0.1 -0.49748846207461755
v 1.2310091683436373 0.1 -0.41787130489411045
v 1.439229481170712 0.1 -0.3856403772027559
v 1.2750208645241994 0.1 -0.25361741862096737
v 1.2888783197859535 0.1 -0.1696840498860672
v 1.2972166002101846 0.1 -0.08502406799918565
v 1.4137142857142857 0.16 0
v 1.2373450648158684 0.16 0.0810998802453774
v 1.2293916281035249 0.16 0.16185247835286395
v 1.2161737477000056 0.16 0.24191199929999901
v 1.3655431395652313 0.16 0.3658961814763636
v 1.174193360573931 0.16 0.39858493697592035
v 1.1456106203139955 0.16 0.4745274561327113
v 1.1121221995005335 0.16 0.5484379758715616
v 1.2243124851215437 0.16 0.7068571428571427
v 1.0310223192551562 0.16 0.6889070889443067
v 0.9837581419611316 0.16 0.7548641719708136
v 0.9322813612739319 0.16 0.8175888107240854
v 0.9996469580888678 0.16 0.9996469580888676
v 0.8175888107240855 0.16 0.9322813612739318
v 0.7548641719708136 0.16 0.9837581419611316
v 0.6889070889443069 0.16 1.0310223192551562
v 0.706857142857143 0.16 1.2243124851215434
v 0.5484379758715615 0.16 1.1121221995005335
v 0.4745274561327114 0.16 1.1456106203139955
v 0.3985849369759205 0.16 1.174193360573931
v 0.3658961814763636 0.16 1.3655431395652313
v 0.24191199929999913 0.16 1.2161737477000056
v 0.16185247835286412 0.16 1.2293916281035249
v 0.08109988024537738 0.16 1.2373450648158684
v 8.656503374544434e-17 0.16 1.4137142857142857
v -0.0810998802453775 0.16 1.2373450648158684
v -0.1618524783528637 0.16 1.229391628103525
v -0.24191199929999896 0.16 1.2161737477000056
v -0.36589618147636377 0.16 1.3655431395652313
v -0.39858493697592007 0.16 1.174193360573931
v -0.47452745613271125 0.16 1.1456106203139955
v -0.5484379758715614 0.16 1.1121221995005335
v -0.7068571428571425 0.16 1.2243124851215437
v -0.6889070889443064 0.16 1.0310223192551562
v -0.7548641719708136 0.16 0.9837581419611316
v -0.8175888107240854 0.16 0.9322813612739319
v -0.9996469580888676 0.16 0.9996469580888678
v -0.9322813612739318 0.16 0.8175888107240855
v -0.9837581419611314 0.16 0.7548641719708139
v -1.0310223192551562 0.16 0.6889070889443067
v -1.2243124851215437 0.16 0.7068571428571427
v -1.1121221995005335 0.16 0.5484379758715616
v -1.1456106203139955 0.16 0.47452745613271147
v -1.174193360573931 0.16 0.39858493697592057
v -1.3655431395652313 0.16 0.365896181476364
v -1.2161737477000056 0.16 0.2419119992999995
v -1.2293916281035249 0.16 0.16185247835286395
v -1.2373450648158684 0.16 0.08109988024537747
v -1.4137142857142857 0.16 1.7313006749088868e-16
v -1.2373450648158684 0.16 -0.08109988024537715
v -1.2293916281035249 0.16 -0.1618524783528642
v -1.2161737477000056 0.16 -0.24191199929999915
v -1.3655431395652315 0.16 -0.36589618147636305
v -1.174193360573931 0.16 -0.3985849369759203
v -1.1456106203139957 0.16 -0.4745274561327112
v -1.1121221995005335 0.16 -0.5484379758715613
v -1.2243124851215434 0.16 -0.706857142857143
v -1.0310223192551564 0.16 -0.6889070889443064
v -0.9837581419611319 0.16 -0.7548641719708132
v -0.9322813612739319 0.16 -0.8175888107240854
v -0.9996469580888679 0.16 -0.9996469580888676
v -0.8175888107240856 0.16 -0.9322813612739318
v -0.7548641719708139 0.16 -0.9837581419611313
v -0.6889070889443067 0.16 -1.0310223192551562
v -0.7068571428571435 0.16 -1.2243124851215432
v -0.5484379758715617 0.16 -1.1121221995005335
v -0.474527456132712 0.16 -1.1456106203139953
v -0.3985849369759206 0.16 -1.174193360573931
v -0.36589618147636344 0.16 -1.3655431395652313
v -0.24191199929999954 0.16 -1.2161737477000056
v -0.161852478352864 0.16 -1.2293916281035249
v -0.08109988024537698 0.16 -1.2373450648158684
v -2.59695101236333e-16 0.16 -1.4137142857142857
v 0.08109988024537654 0.16 -1.2373450648158684
v 0.16185247835286357 0.16 -1.229391628103525
v 0.2419119992999991 0.16 -1.2161737477000056
v 0.365896181476363 0.16 -1.3655431395652315
v 0.39858493697592023 0.16 -1.174193360573931
v 0.4745274561327116 0.16 -1.1456106203139955
v 0.5484379758715613 0.16 -1.1121221995005337
v 0.706857142857143 0.16 -1.2243124851215434
v 0.6889070889443063 0.16 -1.0310223192551564
v 0.7548641719708135 0.16 -0.9837581419611316
v 0.8175888107240856 0.16 -0.9322813612739317
v 0.9996469580888675 0.16 -0.9996469580888679
v 0.9322813612739314 0.16 -0.8175888107240861
v 0.9837581419611313 0.16 -0.7548641719708139
v 1.0310223192551562 0.16 -0.6889070889443067
v 1.2243124851215432 0.16 -0.7068571428571435
v 1.1121221995005335 0.16 -0.5484379758715617
v 1.1456106203139953 0.16 -0.4745274561327121
v 1.174193360573931 0.16 -0.39858493697592073
v 1.3655431395652313 0.16 -0.36589618147636355
v 1.2161737477000056 0.16 -0.2419119992999996
v 1.2293916281035249 0.16 -0.1618524783528641
v 1.2373450648158684 0.16 -0.08109988024537707
v 0.5 0.16 0
v 0.49892946161930174 0.16 0.03270156461507153
v 0.4957224306869052 0.16 0.06526309611002579
v 0.4903926402016152 0.16 0.09754516100806412
v 0.48296291314453416 0.16 0.12940952255126037
v 0.47346506474755284 0.16 0.1607197326515808
v 0.46193976625564337 0.16 0.1913417161825449
v 0.44843637076634413 0.16 0.22114434510950065
v 0.43301270189221935 0.16 0.24999999999999997
v 0.4157348061512726 0.16 0.2777851165098011
v 0.3966766701456176 0.16 0.30438071450436033
v 0.3759199037394887 0.16 0.3296729075500344
v 0.3535533905932738 0.16 0.35355339059327373
v 0.3296729075500345 0.16 0.37591990373948864
v 0.30438071450436033 0.16 0.3966766701456176
v 0.27778511650980114 0.16 0.4157348061512726
v 0.25000000000000006 0.16 0.4330127018922193
v 0.22114434510950062 0.16 0.4484363707663442
v 0.19134171618254492 0.16 0.46193976625564337
v 0.16071973265158085 0.16 0.4734650647475528
v 0.12940952255126037 0.16 0.48296291314453416
v 0.09754516100806417 0.16 0.4903926402016152
v 0.06526309611002586 0.16 0.4957224306869052
v 0.032701564615071524 0.16 0.49892946161930174
v 3.061616997868383e-17 0.16 0.5
v -0.03270156461507157 0.16 0.49892946161930174
v -0.06526309611002569 0.16 0.49572243068690525
v -0.0975451610080641 0.16 0.4903926402016152
v -0.12940952255126043 0.16 0.48296291314453416
v -0.16071973265158068 0.16 0.47346506474755284
v -0.19134171618254486 0.16 0.46193976625564337
v -0.22114434510950057 0.16 0.4484363707663442
v -0.2499999999999999 0.16 0.43301270189221935
v -0.277785116509801 0.16 0.4157348061512727
v -0.30438071450436033 0.16 0.3966766701456176
v -0.3296729075500344 0.16 0.3759199037394887
v -0.35355339059327373 0.16 0.3535533905932738
v -0.37591990373948864 0.16 0.3296729075500345
v -0.3966766701456175 0.16 0.30438071450436044
v -0.4157348061512727 0.16 0.2777851165098011
v -0.43301270189221935 0.16 0.24999999999999997
v -0.44843637076634413 0.16 0.22114434510950065
v -0.46193976625564337 0.16 0.19134171618254495
v -0.4734650647475528 0.16 0.16071973265158088
v -0.4829629131445341 0.16 0.1294095225512605
v -0.4903926402016152 0.16 0.0975451610080643
v -0.4957224306869052 0.16 0.06526309611002579
v -0.49892946161930174 0.16 0.03270156461507156
v -0.5 0.16 6.123233995736766e-17
v -0.49892946161930174 0.16 -0.032701564615071434
v -0.4957224306869052 0.16 -0.06526309611002588
v -0.4903926402016152 0.16 -0.09754516100806418
v -0.4829629131445342 0.16 -0.12940952255126018
v -0.47346506474755284 0.16 -0.16071973265158077
v -0.4619397662556434 0.16 -0.19134171618254484
v -0.4484363707663442 0.16 -0.22114434510950054
v -0.4330127018922193 0.16 -0.25000000000000006
v -0.41573480615127273 0.16 -0.277785116509801
v -0.3966766701456177 0.16 -0.30438071450436016
v -0.3759199037394887 0.16 -0.3296729075500344
v -0.35355339059327384 0.16 -0.35355339059327373
v -0.32967290755003453 0.16 -0.37591990373948864
v -0.30438071450436044 0.16 -0.39667667014561747
v -0.2777851165098011 0.16 -0.4157348061512726
v -0.2500000000000002 0.16 -0.43301270189221924
v -0.22114434510950068 0.16 -0.44843637076634413
v -0.19134171618254517 0.16 -0.46193976625564326
v -0.1607197326515809 0.16 -0.4734650647475528
v -0.12940952255126031 0.16 -0.48296291314453416
v -0.09754516100806433 0.16 -0.49039264020161516
v -0.06526309611002581 0.16 -0.4957224306869052
v -0.032701564615071364 0.16 -0.49892946161930174
v -9.184850993605148e-17 0.16 -0.5
v 0.032701564615071184 0.16 -0.4989294616193018
v 0.06526309611002563 0.16 -0.49572243068690525
v 0.09754516100806415 0.16 -0.4903926402016152
v 0.12940952255126015 0.16 -0.4829629131445342
v 0.16071973265158074 0.16 -0.47346506474755284
v 0.191341716182545 0.16 -0.4619397662556433
v 0.2211443451095005 0.16 -0.44843637076634424
v 0.25000000000000006 0.16 -0.4330127018922193
v 0.2777851165098009 0.16 -0.41573480615127273
v 0.3043807145043603 0.16 -0.3966766701456176
v 0.32967290755003453 0.16 -0.3759199037394886
v 0.3535533905932737 0.16 -0.35355339059327384
v 0.37591990373948847 0.16 -0.3296729075500347
v 0.39667667014561747 0.16 -0.30438071450436044
v 0.4157348061512726 0.16 -0.2777851165098011
v 0.4330127018922192 0.16 -0.2500000000000002
v 0.44843637076634413 0.16 -0.2211443451095007
v 0.46193976625564326 0.16 -0.1913417161825452
v 0.4734650647475528 0.16 -0.16071973265158093
v 0.48296291314453416 0.16 -0.12940952255126034
v 0.49039264020161516 0.16 -0.09754516100806436
v 0.4957224306869052 0.16 -0.06526309611002584
v 0.49892946161930174 0.16 -0.0327015646150714
v 0.45 0.1 0
v 0.44903651545737155 0.1 0.02943140815356438
v 0.4461501876182147 0.1 0.05873678649902321
v 0.4413533761814537 0.1 0.08779064490725771
v 0.43466662183008076 0.1 0.11646857029613433
v 0.42611855827279754 0.1 0.14464775938642271
v 0.415745789630079 0.1 0.1722075445642904
v 0.4035927336897097 0.1 0.1990299105985506
v 0.38971143170299744 0.1 0.22499999999999998
v 0.37416132553614534 0.1 0.250006604858821
v 0.3570090031310558 0.1 0.2739426430539243
v 0.33832791336553986 0.1 0.296705616795031
v 0.3181980515339464 0.1 0.31819805153394637
v 0.29670561679503105 0.1 0.3383279133655398
v 0.2739426430539243 0.1 0.3570090031310558
v 0.25000660485882104 0.1 0.37416132553614534
v 0.22500000000000006 0.1 0.3897114317029974
v 0.19902991059855057 0.1 0.40359273368970977
v 0.17220754456429044 0.1 0.415745789630079
v 0.14464775938642277 0.1 0.42611855827279754
v 0.11646857029613433 0.1 0.43466662183008076
v 0.08779064490725776 0.1 0.4413533761814537
v 0.05873678649902327 0.1 0.4461501876182147
v 0.029431408153564372 0.1 0.44903651545737155
v 2.7554552980815448e-17 0.1 0.45
v -0.029431408153564417 0.1 0.44903651545737155
v -0.05873678649902312 0.1 0.44615018761821473
v -0.08779064490725769 0.1 0.4413533761814537
v -0.11646857029613439 0.1 0.43466662183008076
v -0.14464775938642263 0.1 0.42611855827279754
v -0.17220754456429038 0.1 0.415745789630079
v -0.19902991059855052 0.1 0.40359273368970977
v -0.2249999999999999 0.1 0.38971143170299744
v -0.25000660485882087 0.1 0.3741613255361454
v -0.2739426430539243 0.1 0.3570090031310558
v -0.296705616795031 0.1 0.33832791336553986
v -0.31819805153394637 0.1 0.3181980515339464
v -0.3383279133655398 0.1 0.29670561679503105
v -0.35700900313105577 0.1 0.2739426430539244
v -0.3741613255361454 0.1 0.250006604858821
v -0.38971143170299744 0.1 0.22499999999999998
v -0.4035927336897097 0.1 0.1990299105985506
v -0.415745789630079 0.1 0.17220754456429047
v -0.42611855827279754 0.1 0.1446477593864228
v -0.4346666218300807 0.1 0.11646857029613446
v -0.4413533761814537 0.1 0.08779064490725788
v -0.4461501876182147 0.1 0.05873678649902321
v -0.44903651545737155 0.1 0.029431408153564403
v -0.45 0.1 5.5109105961630896e-17
v -0.44903651545737155 0.1 -0.029431408153564292
v -0.4461501876182147 0.1 -0.058736786499023294
v -0.4413533761814537 0.1 -0.08779064490725777
v -0.4346666218300808 0.1 -0.11646857029613417
v -0.42611855827279754 0.1 -0.1446477593864227
v -0.4157457896300791 0.1 -0.17220754456429035
v -0.40359273368970977 0.1 -0.1990299105985505
v -0.3897114317029974 0.1 -0.22500000000000006
v -0.37416132553614545 0.1 -0.25000660485882087
v -0.35700900313105594 0.1 -0.27394264305392413
v -0.33832791336553986 0.1 -0.296705616795031
v -0.3181980515339465 0.1 -0.31819805153394637
v -0.2967056167950311 0.1 -0.3383279133655398
v -0.2739426430539244 0.1 -0.3570090031310557
v -0.250006604858821 0.1 -0.37416132553614534
v -0.2250000000000002 0.1 -0.3897114317029973
v -0.1990299105985506 0.1 -0.4035927336897097
v -0.17220754456429066 0.1 -0.41574578963007897
v -0.14464775938642283 0.1 -0.42611855827279754
v -0.11646857029613429 0.1 -0.43466662183008076
v -0.0877906449072579 0.1 -0.44135337618145365
v -0.05873678649902323 0.1 -0.4461501876182147
v -0.02943140815356423 0.1 -0.44903651545737155
v -8.266365894244634e-17 0.1 -0.45
v 0.029431408153564067 0.1 -0.4490365154573716
v 0.05873678649902307 0.1 -0.44615018761821473
v 0.08779064490725774 0.1 -0.4413533761814537
v 0.11646857029613414 0.1 -0.4346666218300808
v 0.14464775938642266 0.1 -0.42611855827279754
v 0.1722075445642905 0.1 -0.41574578963007897
v 0.19902991059855046 0.1 -0.4035927336897098
v 0.22500000000000006 0.1 -0.3897114317029974
v 0.2500066048588208 0.1 -0.37416132553614545
v 0.27394264305392424 0.1 -0.3570090031310558
v 0.2967056167950311 0.1 -0.33832791336553975
v 0.3181980515339463 0.1 -0.3181980515339465
v 0.33832791336553963 0.1 -0.2967056167950312
v 0.3570090031310557 0.1 -0.2739426430539244
v 0.37416132553614534 0.1 -0.250006604858821
v 0.38971143170299727 0.1 -0.2250000000000002
v 0.4035927336897097 0.1 -0.19902991059855063
v 0.41574578963007897 0.1 -0.1722075445642907
v 0.42611855827279754 0.1 -0.14464775938642285
v 0.43466662183008076 0.1 -0.1164685702961343
v 0.44135337618145365 0.1 -0.08779064490725792
v 0.4461501876182147 0.1 -0.05873678649902326
v 0.44903651545737155 0.1 -0.02943140815356426
vt 0 0
vt 0 0.125
vt 0.010416666666666666 0.125
vt 0.010416666666666666 0
vt 0.020833333333333332 0.125
vt 0.020833333333333332 0
vt 0.03125 0.125
vt 0.03125 0
vt 0.041666666666666664 0.125
vt 0.041666666666666664 0
vt 0.052083333333333336 0.125
vt 0.052083333333333336 0
vt 0.0625 0.125
vt 0.0625 0
vt 0.07291666666666667 0.125
vt 0.07291666666666667 0
vt 0.08333333333333333 0.125
vt 0.08333333333333333 0
vt 0.09375 0.125
vt 0.09375 0
vt 0.10416666666666667 0.125
vt 0.10416666666666667 0
vt 0.11458333333333333 0.125
vt 0.11458333333333333 0
vt 0.125 0.125
vt 0.125 0
vt 0.13541666666666666 0.125
vt 0.13541666666666666 0
vt 0.14583333333333334 0.125
vt 0.14583333333333334 0
vt 0.15625 0.125
vt 0.15625 0
vt 0.16666666666666666 0.125
vt 0.16666666666666666 0
vt 0.17708333333333334 0.125
vt 0.17708333333333334 0
vt 0.1875 0.125
vt 0.1875 0
vt 0.19791666666666666 0.125
vt 0.19791666666666666 0
vt 0.20833333333333334 0.125
vt 0.20833333333333334 0
vt 0.21875 0.125
vt 0.21875 0
vt 0.22916666666666666 0.125
vt 0.22916666666666666 0
vt 0.23958333333333334 0.125
vt 0.23958333333333334 0
vt 0.25 0.125
vt 0.25 0
vt 0.2604166666666667 0.125
vt 0.2604166666666667 0
vt 0.2708333333333333 0.125
vt 0.2708333333333333 0
vt 0.28125 0.125
vt 0.28125 0
vt 0.2916666666666667 0.125
vt 0.2916666666666667 0
vt 0.3020833333333333 0.125
vt 0.3020833333333333 0
vt 0.3125 0.125
vt 0.3125 0
vt 0.3229166666666667 0.125
vt 0.3229166666666667 0
vt 0.3333333333333333 0.125
vt 0.3333333333333333 0
vt 0.34375 0.125
vt 0.34375 0
vt 0.3541666666666667 0.125
vt 0.3541666666666667 0
vt 0.3645833333333333 0.125
vt 0.3645833333333333 0
vt 0.375 0.125
vt 0.375 0
vt 0.3854166666666667 0.125
vt 0.3854166666666667 0
vt 0.3958333333333333 0.125
vt 0.3958333333333333 0
vt 0.40625 0.125
vt 0.40625 0
vt 0.4166666666666667 0.125
vt 0.4166666666666667 0
vt 0.4270833333333333 0.125
vt 0.4270833333333333 0
vt 0.4375 0.125
vt 0.4375 0
vt 0.4479166666666667 0.125
vt 0.4479166666666667 0
vt 0.4583333333333333 0.125
vt 0.4583333333333333 0
vt 0.46875 0.125
vt 0.46875 0
vt 0.4791666666666667 0.125
vt 0.4791666666666667 0
vt 0.4895833333333333 0.125
vt 0.4895833333333333 0
vt 0.5 0.125
vt 0.5 0
vt 0.5104166666666666 0.125
vt 0.5104166666666666 0
vt 0.5208333333333334 0.125
vt 0.5208333333333334 0
vt 0.53125 0.125
vt 0.53125 0
vt 0.5416666666666666 0.125
vt 0.5416666666666666 0
vt 0.5520833333333334 0.125
vt 0.5520833333333334 0
vt 0.5625 0.125
vt 0.5625 0
vt 0.5729166666666666 0.125
vt 0.5729166666666666 0
vt 0.5833333333333334 0.125
vt 0.5833333333333334 0
vt 0.59375 0.125
vt 0.59375 0
vt 0.6041666666666666 0.125
vt 0.6041666666666666 0
vt 0.6145833333333334 0.125
vt 0.6145833333333334 0
vt 0.625 0.125
vt 0.625 0
vt 0.6354166666666666 0.125
vt 0.6354166666666666 0
vt 0.6458333333333334 0.125
vt 0.6458333333333334 0
vt 0.65625 0.125
vt 0.65625 0
vt 0.6666666666666666 0.125
vt 0.6666666666666666 0
vt 0.6770833333333334 0.125
vt 0.6770833333333334 0
vt 0.6875 0.125
vt 0.6875 0
vt 0.6979166666666666 0.125
vt 0.6979166666666666 0
vt 0.7083333333333334 0.125
vt 0.7083333333333334 0
vt 0.71875 0.125
vt 0.71875 0
vt 0.7291666666666666 0.125
vt 0.7291666666666666 0
vt 0.7395833333333334 0.125
vt 0.7395833333333334 0
vt 0.75 0.125
vt 0.75 0
vt 0.7604166666666666 0.125
vt 0.7604166666666666 0
vt 0.7708333333333334 0.125
vt 0.7708333333333334 0
vt 0.78125 0.125
vt 0.78125 0
vt 0.7916666666666666 0.125
vt 0.7916666666666666 0
vt 0.8020833333333334 0.125
vt 0.8020833333333334 0
vt 0.8125 0.125
vt 0.8125 0
vt 0.8229166666666666 0.125
vt 0.8229166666666666 0
vt 0.8333333333333334 0.125
vt 0.8333333333333334 0
vt 0.84375 0.125
vt 0.84375 0
vt 0.8541666666666666 0.125
vt 0.8541666666666666 0
vt 0.8645833333333334 0.125
vt 0.8645833333333334 0
vt 0.875 0.125
vt 0.875 0
vt 0.8854166666666666 0.125
vt 0.8854166666666666 0
vt 0.8958333333333334 0.125
vt 0.8958333333333334 0
vt 0.90625 0.125
vt 0.90625 0
vt 0.9166666666666666 0.125
vt 0.9166666666666666 0
vt 0.9270833333333334 0.125
vt 0.9270833333333334 0
vt 0.9375 0.125
vt 0.9375 0
vt 0.9479166666666666 0.125
vt 0.9479166666666666 0
vt 0.9583333333333334 0.125
vt 0.9583333333333334 0
vt 0.96875 0.125
vt 0.96875 0
vt 0.9791666666666666 0.125
vt 0.9791666666666666 0
vt 0.9895833333333334 0.125
vt 0.9895833333333334 0
vt 1 0.125
vt 1 0
vt 0 0.25
vt 0.010416666666666666 0.25
vt 0.020833333333333332 0.25
vt 0.03125 0.25
vt 0.041666666666666664 0.25
vt 0.052083333333333336 0.25
vt 0.0625 0.25
vt 0.07291666666666667 0.25
vt 0.08333333333333333 0.25
vt 0.09375 0.25
vt 0.10416666666666667 0.25
vt 0.11458333333333333 0.25
vt 0.125 0.25
vt 0.13541666666666666 0.25
vt 0.14583333333333334 0.25
vt 0.15625 0.25
vt 0.16666666666666666 0.25
vt 0.17708333333333334 0.25
vt 0.1875 0.25
vt 0.19791666666666666 0.25
vt 0.20833333333333334 0.25
vt 0.21875 0.25
vt 0.22916666666666666 0.25
vt 0.23958333333333334 0.25
vt 0.25 0.25
vt 0.2604166666666667 0.25
vt 0.2708333333333333 0.25
vt 0.28125 0.25
vt 0.2916666666666667 0.25
vt 0.3020833333333333 0.25
vt 0.3125 0.25
vt 0.3229166666666667 0.25
vt 0.3333333333333333 0.25
vt 0.34375 0.25
vt 0.3541666666666667 0.25
vt 0.3645833333333333 0.25
vt 0.375 0.25
vt 0.3854166666666667 0.25
vt 0.3958333333333333 0.25
vt 0.40625 0.25
vt 0.4166666666666667 0.25
vt 0.4270833333333333 0.25
vt 0.4375 0.25
vt 0.4479166666666667 0.25
vt 0.4583333333333333 0.25
vt 0.46875 0.25
vt 0.4791666666666667 0.25
vt 0.4895833333333333 0.25
vt 0.5 0.25
vt 0.5104166666666666 0.25
vt 0.5208333333333334 0.25
vt 0.53125 0.25
vt 0.5416666666666666 0.25
vt 0.5520833333333334 0.25
vt 0.5625 0.25
vt 0.5729166666666666 0.25
vt 0.5833333333333334 0.25
vt 0.59375 0.25
vt 0.6041666666666666 0.25
vt 0.6145833333333334 0.25
vt 0.625 0.25
vt 0.6354166666666666 0.25
vt 0.6458333333333334 0.25
vt 0.65625 0.25
vt 0.6666666666666666 0.25
vt 0.6770833333333334 0.25
vt 0.6875 0.25
vt 0.6979166666666666 0.25
vt 0.7083333333333334 0.25
vt 0.71875 0.25
vt 0.7291666666666666 0.25
vt 0.7395833333333334 0.25
vt 0.75 0.25
vt 0.7604166666666666 0.25
vt 0.7708333333333334 0.25
vt 0.78125 0.25
vt 0.7916666666666666 0.25
vt 0.8020833333333334 0.25
vt 0.8125 0.25
vt 0.8229166666666666 0.25
vt 0.8333333333333334 0.25
vt 0.84375 0.25
vt 0.8541666666666666 0.25
vt 0.8645833333333334 0.25
vt 0.875 0.25
vt 0.8854166666666666 0.25
vt 0.8958333333333334 0.25
vt 0.90625 0.25
vt 0.9166666666666666 0.25
vt 0.9270833333333334 0.25
vt 0.9375 0.25
vt 0.9479166666666666 0.25
vt 0.9583333333333334 0.25
vt 0.96875 0.25
vt 0.9791666666666666 0.25
vt 0.9895833333333334 0.25
vt 1 0.25
vt 0 0.375
vt 0.010416666666666666 0.375
vt 0.020833333333333332 0.375
vt 0.03125 0.375
vt 0.041666666666666664 0.375
vt 0.052083333333333336 0.375
vt 0.0625 0.375
vt 0.07291666666666667 0.375
vt 0.08333333333333333 0.375
vt 0.09375 0.375
vt 0.10416666666666667 0.375
vt 0.11458333333333333 0.375
vt 0.125 0.375
vt 0.13541666666666666 0.375
vt 0.14583333333333334 0.375
vt 0.15625 0.375
vt 0.16666666666666666 0.375
vt 0.17708333333333334 0.375
vt 0.1875 0.375
vt 0.19791666666666666 0.375
vt 0.20833333333333334 0.375
vt 0.21875 0.375
vt 0.22916666666666666 0.375
vt 0.23958333333333334 0.375
vt 0.25 0.375
vt 0.2604166666666667 0.375
vt 0.2708333333333333 0.375
vt 0.28125 0.375
vt 0.2916666666666667 0.375
vt 0.3020833333333333 0.375
vt 0.3125 0.375
vt 0.3229166666666667 0.375
vt 0.3333333333333333 0.375
vt 0.34375 0.375
vt 0.3541666666666667 0.375
vt 0.3645833333333333 0.375
vt 0.375 0.375
vt 0.3854166666666667 0.375
vt 0.3958333333333333 0.375
vt 0.40625 0.375
vt 0.4166666666666667 0.375
vt 0.4270833333333333 0.375
vt 0.4375 0.375
vt 0.4479166666666667 0.375
vt 0.4583333333333333 0.375
vt 0.46875 0.375
vt 0.4791666666666667 0.375
vt 0.4895833333333333 0.375
vt 0.5 0.375
vt 0.5104166666666666 0.375
vt 0.5208333333333334 0.375
vt 0.53125 0.375
vt 0.5416666666666666 0.375
vt 0.5520833333333334 0.375
vt 0.5625 0.375
vt 0.5729166666666666 0.375
vt 0.5833333333333334 0.375
vt 0.59375 0.375
vt 0.6041666666666666 0.375
vt 0.6145833333333334 0.375
vt 0.625 0.375
vt 0.6354166666666666 0.375
vt 0.6458333333333334 0.375
vt 0.65625 0.375
vt 0.6666666666666666 0.375
vt 0.6770833333333334 0.375
vt 0.6875 0.375
vt 0.6979166666666666 0.375
vt 0.7083333333333334 0.375
vt 0.71875 0.375
vt 0.7291666666666666 0.375
vt 0.7395833333333334 0.375
vt 0.75 0.375
vt 0.7604166666666666 0.375
vt 0.7708333333333334 0.375
vt 0.78125 0.375
vt 0.7916666666666666 0.375
vt 0.8020833333333334 0.375
vt 0.8125 0.375
vt 0.8229166666666666 0.375
vt 0.8333333333333334 0.375
vt 0.84375 0.375
vt 0.8541666666666666 0.375
vt 0.8645833333333334 0.375
vt 0.875 0.375
vt 0.8854166666666666 0.375
vt 0.8958333333333334 0.375
vt 0.90625 0.375
vt 0.9166666666666666 0.375
vt 0.9270833333333334 0.375
vt 0.9375 0.375
vt 0.9479166666666666 0.375
vt 0.9583333333333334 0.375
vt 0.96875 0.375
vt 0.9791666666666666 0.375
vt 0.9895833333333334 0.375
vt 1 0.375
vt 0 0.5
vt 0.010416666666666666 0.5
vt 0.020833333333333332 0.5
vt 0.03125 0.5
vt 0.041666666666666664 0.5
vt 0.052083333333333336 0.5
vt 0.0625 0.5
vt 0.07291666666666667 0.5
vt 0.08333333333333333 0.5
vt 0.09375 0.5
vt 0.10416666666666667 0.5
vt 0.11458333333333333 0.5
vt 0.125 0.5
vt 0.13541666666666666 0.5
vt 0.14583333333333334 0.5
vt 0.15625 0.5
vt 0.16666666666666666 0.5
vt 0.17708333333333334 0.5
vt 0.1875 0.5
vt 0.19791666666666666 0.5
vt 0.20833333333333334 0.5
vt 0.21875 0.5
vt 0.22916666666666666 0.5
vt 0.23958333333333334 0.5
vt 0.25 0.5
vt 0.2604166666666667 0.5
vt 0.2708333333333333 0.5
vt 0.28125 0.5
vt 0.2916666666666667 0.5
vt 0.3020833333333333 0.5
vt 0.3125 0.5
vt 0.3229166666666667 0.5
vt 0.3333333333333333 0.5
vt 0.34375 0.5
vt 0.3541666666666667 0.5
vt 0.3645833333333333 0.5
vt 0.375 0.5
vt 0.3854166666666667 0.5
vt 0.3958333333333333 0.5
vt 0.40625 0.5
vt 0.4166666666666667 0.5
vt 0.4270833333333333 0.5
vt 0.4375 0.5
vt 0.4479166666666667 0.5
vt 0.4583333333333333 0.5
vt 0.46875 0.5
vt 0.4791666666666667 0.5
vt 0.4895833333333333 0.5
vt 0.5 0.5
vt 0.5104166666666666 0.5
vt 0.5208333333333334 0.5
vt 0.53125 0.5
vt 0.5416666666666666 0.5
vt 0.5520833333333334 0.5
vt 0.5625 0.5
vt 0.5729166666666666 0.5
vt 0.5833333333333334 0.5
vt 0.59375 0.5
vt 0.6041666666666666 0.5
vt 0.6145833333333334 0.5
vt 0.625 0.5
vt 0.6354166666666666 0.5
vt 0.6458333333333334 0.5
vt 0.65625 0.5
vt 0.6666666666666666 0.5
vt 0.6770833333333334 0.5
vt 0.6875 0.5
vt 0.6979166666666666 0.5
vt 0.7083333333333334 0.5
vt 0.71875 0.5
vt 0.7291666666666666 0.5
vt 0.7395833333333334 0.5
vt 0.75 0.5
vt 0.7604166666666666 0.5
vt 0.7708333333333334 0.5
vt 0.78125 0.5
vt 0.7916666666666666 0.5
vt 0.8020833333333334 0.5
vt 0.8125 0.5
vt 0.8229166666666666 0.5
vt 0.8333333333333334 0.5
vt 0.84375 0.5
vt 0.8541666666666666 0.5
vt 0.8645833333333334 0.5
vt 0.875 0.5
vt 0.8854166666666666 0.5
vt 0.8958333333333334 0.5
vt 0.90625 0.5
vt 0.9166666666666666 0.5
vt 0.9270833333333334 0.5
vt 0.9375 0.5
vt 0.9479166666666666 0.5
vt 0.9583333333333334 0.5
vt 0.96875 0.5
vt 0.9791666666666666 0.5
vt 0.9895833333333334 0.5
vt 1 0.5
vt 0 0.625
vt 0.010416666666666666 0.625
vt 0.020833333333333332 0.625
vt 0.03125 0.625
vt 0.041666666666666664 0.625
vt 0.052083333333333336 0.625
vt 0.0625 0.625
vt 0.07291666666666667 0.625
vt 0.08333333333333333 0.625
vt 0.09375 0.625
vt 0.10416666666666667 0.625
vt 0.11458333333333333 0.625
vt 0.125 0.625
vt 0.13541666666666666 0.625
vt 0.14583333333333334 0.625
vt 0.15625 0.625
vt 0.16666666666666666 0.625
vt 0.17708333333333334 0.625
vt 0.1875 0.625
vt 0.19791666666666666 0.625
vt 0.20833333333333334 0.625
vt 0.21875 0.625
vt 0.22916666666666666 0.625
vt 0.23958333333333334 0.625
vt 0.25 0.625
vt 0.2604166666666667 0.625
vt 0.2708333333333333 0.625
vt 0.28125 0.625
vt 0.2916666666666667 0.625
vt 0.3020833333333333 0.625
vt 0.3125 0.625
vt 0.3229166666666667 0.625
vt 0.3333333333333333 0.625
vt 0.34375 0.625
vt 0.3541666666666667 0.625
vt 0.3645833333333333 0.625
vt 0.375 0.625
vt 0.3854166666666667 0.625
vt 0.3958333333333333 0.625
vt 0.40625 0.625
vt 0.4166666666666667 0.625
vt 0.4270833333333333 0.625
vt 0.4375 0.625
vt 0.4479166666666667 0.625
vt 0.4583333333333333 0.625
vt 0.46875 0.625
vt 0.4791666666666667 0.625
vt 0.4895833333333333 0.625
vt 0.5 0.625
vt 0.5104166666666666 0.625
vt 0.5208333333333334 0.625
vt 0.53125 0.625
vt 0.5416666666666666 0.625
vt 0.5520833333333334 0.625
vt 0.5625 0.625
vt 0.5729166666666666 0.625
vt 0.5833333333333334 0.625
vt 0.59375 0.625
vt 0.6041666666666666 0.625
vt 0.6145833333333334 0.625
vt 0.625 0.625
vt 0.6354166666666666 0.625
vt 0.6458333333333334 0.625
vt 0.65625 0.625
vt 0.6666666666666666 0.625
vt 0.6770833333333334 0.625
vt 0.6875 0.625
vt 0.6979166666666666 0.625
vt 0.7083333333333334 0.625
vt 0.71875 0.625
vt 0.7291666666666666 0.625
vt 0.7395833333333334 0.625
vt 0.75 0.625
vt 0.7604166666666666 0.625
vt 0.7708333333333334 0.625
vt 0.78125 0.625
vt 0.7916666666666666 0.625
vt 0.8020833333333334 0.625
vt 0.8125 0.625
vt 0.8229166666666666 0.625
vt 0.8333333333333334 0.625
vt 0.84375 0.625
vt 0.8541666666666666 0.625
vt 0.8645833333333334 0.625
vt 0.875 0.625
vt 0.8854166666666666 0.625
vt 0.8958333333333334 0.625
vt 0.90625 0.625
vt 0.9166666666666666 0.625
vt 0.9270833333333334 0.625
vt 0.9375 0.625
vt 0.9479166666666666 0.625
vt 0.9583333333333334 0.625
vt 0.96875 0.625
vt 0.9791666666666666 0.625
vt 0.9895833333333334 0.625
vt 1 0.625
vt 0 0.75
vt 0.010416666666666666 0.75
vt 0.020833333333333332 0.75
vt 0.03125 0.75
vt 0.041666666666666664 0.75
vt 0.052083333333333336 0.75
vt 0.0625 0.75
vt 0.07291666666666667 0.75
vt 0.08333333333333333 0.75
vt 0.09375 0.75
vt 0.10416666666666667 0.75
vt 0.11458333333333333 0.75
vt 0.125 0.75
vt 0.13541666666666666 0.75
vt 0.14583333333333334 0.75
vt 0.15625 0.75
vt 0.16666666666666666 0.75
vt 0.17708333333333334 0.75
vt 0.1875 0.75
vt 0.19791666666666666 0.75
vt 0.20833333333333334 0.75
vt 0.21875 0.75
vt 0.22916666666666666 0.75
vt 0.23958333333333334 0.75
vt 0.25 0.75
vt 0.2604166666666667 0.75
vt 0.2708333333333333 0.75
vt 0.28125 0.75
vt 0.2916666666666667 0.75
vt 0.3020833333333333 0.75
vt 0.3125 0.75
vt 0.3229166666666667 0.75
vt 0.3333333333333333 0.75
vt 0.34375 0.75
vt 0.3541666666666667 0.75
vt 0.3645833333333333 0.75
vt 0.375 0.75
vt 0.3854166666666667 0.75
vt 0.3958333333333333 0.75
vt 0.40625 0.75
vt 0.4166666666666667 0.75
vt 0.4270833333333333 0.75
vt 0.4375 0.75
vt 0.4479166666666667 0.75
vt 0.4583333333333333 0.75
vt 0.46875 0.75
vt 0.4791666666666667 0.75
vt 0.4895833333333333 0.75
vt 0.5 0.75
vt 0.5104166666666666 0.75
vt 0.5208333333333334 0.75
vt 0.53125 0.75
vt 0.5416666666666666 0.75
vt 0.5520833333333334 0.75
vt 0.5625 0.75
vt 0.5729166666666666 0.75
vt 0.5833333333333334 0.75
vt 0.59375 0.75
vt 0.6041666666666666 0.75
vt 0.6145833333333334 0.75
vt 0.625 0.75
vt 0.6354166666666666 0.75
vt 0.6458333333333334 0.75
vt 0.65625 0.75
vt 0.6666666666666666 0.75
vt 0.6770833333333334 0.75
vt 0.6875 0.75
vt 0.6979166666666666 0.75
vt 0.7083333333333334 0.75
vt 0.71875 0.75
vt 0.7291666666666666 0.75
vt 0.7395833333333334 0.75
vt 0.75 0.75
vt 0.7604166666666666 0.75
vt 0.7708333333333334 0.75
vt 0.78125 0.75
vt 0.7916666666666666 0.75
vt 0.8020833333333334 0.75
vt 0.8125 0.75
vt 0.8229166666666666 0.75
vt 0.8333333333333334 0.75
vt 0.84375 0.75
vt 0.8541666666666666 0.75
vt 0.8645833333333334 0.75
vt 0.875 0.75
vt 0.8854166666666666 0.75
vt 0.8958333333333334 0.75
vt 0.90625 0.75
vt 0.9166666666666666 0.75
vt 0.9270833333333334 0.75
vt 0.9375 0.75
vt 0.9479166666666666 0.75
vt 0.9583333333333334 0.75
vt 0.96875 0.75
vt 0.9791666666666666 0.75
vt 0.9895833333333334 0.75
vt 1 0.75
vt 0 0.875
vt 0.010416666666666666 0.875
vt 0.020833333333333332 0.875
vt 0.03125 0.875
vt 0.041666666666666664 0.875
vt 0.052083333333333336 0.875
vt 0.0625 0.875
vt 0.07291666666666667 0.875
vt 0.08333333333333333 0.875
vt 0.09375 0.875
vt 0.10416666666666667 0.875
vt 0.11458333333333333 0.875
vt 0.125 0.875
vt 0.13541666666666666 0.875
vt 0.14583333333333334 0.875
vt 0.15625 0.875
vt 0.16666666666666666 0.875
vt 0.17708333333333334 0.875
vt 0.1875 0.875
vt 0.19791666666666666 0.875
vt 0.20833333333333334 0.875
vt 0.21875 0.875
vt 0.22916666666666666 0.875
vt 0.23958333333333334 0.875
vt 0.25 0.875
vt 0.2604166666666667 0.875
vt 0.2708333333333333 0.875
vt 0.28125 0.875
vt 0.2916666666666667 0.875
vt 0.3020833333333333 0.875
vt 0.3125 0.875
vt 0.3229166666666667 0.875
vt 0.3333333333333333 0.875
vt 0.34375 0.875
vt 0.3541666666666667 0.875
vt 0.3645833333333333 0.875
vt 0.375 0.875
vt 0.3854166666666667 0.875
vt 0.3958333333333333 0.875
vt 0.40625 0.875
vt 0.4166666666666667 0.875
vt 0.4270833333333333 0.875
vt 0.4375 0.875
vt 0.4479166666666667 0.875
vt 0.4583333333333333 0.875
vt 0.46875 0.875
vt 0.4791666666666667 0.875
vt 0.4895833333333333 0.875
vt 0.5 0.875
vt 0.5104166666666666 0.875
vt 0.5208333333333334 0.875
vt 0.53125 0.875
vt 0.5416666666666666 0.875
vt 0.5520833333333334 0.875
vt 0.5625 0.875
vt 0.5729166666666666 0.875
vt 0.5833333333333334 0.875
vt 0.59375 0.875
vt 0.6041666666666666 0.875
vt 0.6145833333333334 0.875
vt 0.625 0.875
vt 0.6354166666666666 0.875
vt 0.6458333333333334 0.875
vt 0.65625 0.875
vt 0.6666666666666666 0.875
vt 0.6770833333333334 0.875
vt 0.6875 0.875
vt 0.6979166666666666 0.875
vt 0.7083333333333334 0.875
vt 0.71875 0.875
vt 0.7291666666666666 0.875
vt 0.7395833333333334 0.875
vt 0.75 0.875
vt 0.7604166666666666 0.875
vt 0.7708333333333334 0.875
vt 0.78125 0.875
vt 0.7916666666666666 0.875
vt 0.8020833333333334 0.875
vt 0.8125 0.875
vt 0.8229166666666666 0.875
vt 0.8333333333333334 0.875
vt 0.84375 0.875
vt 0.8541666666666666 0.875
vt 0.8645833333333334 0.875
vt 0.875 0.875
vt 0.8854166666666666 0.875
vt 0.8958333333333334 0.875
vt 0.90625 0.875
vt 0.9166666666666666 0.875
vt 0.9270833333333334 0.875
vt 0.9375 0.875
vt 0.9479166666666666 0.875
vt 0.9583333333333334 0.875
vt 0.96875 0.875
vt 0.9791666666666666 0.875
vt 0.9895833333333334 0.875
vt 1 0.875
vt 0 1
vt 0.010416666666666666 1
vt 0.020833333333333332 1
vt 0.03125 1
vt 0.041666666666666664 1
vt 0.052083333333333336 1
vt 0.0625 1
vt 0.07291666666666667 1
vt 0.08333333333333333 1
vt 0.09375 1
vt 0.10416666666666667 1
vt 0.11458333333333333 1
vt 0.125 1
vt 0.13541666666666666 1
vt 0.14583333333333334 1
vt 0.15625 1
vt 0.16666666666666666 1
vt 0.17708333333333334 1
vt 0.1875 1
vt 0.19791666666666666 1
vt 0.20833333333333334 1
vt 0.21875 1
vt 0.22916666666666666 1
vt 0.23958333333333334 1
vt 0.25 1
vt 0.2604166666666667 1
vt 0.2708333333333333 1
vt 0.28125 1
vt 0.2916666666666667 1
vt 0.3020833333333333 1
vt 0.3125 1
vt 0.3229166666666667 1
vt 0.3333333333333333 1
vt 0.34375 1
vt 0.3541666666666667 1
vt 0.3645833333333333 1
vt 0.375 1
vt 0.3854166666666667 1
vt 0.3958333333333333 1
vt 0.40625 1
vt 0.4166666666666667 1
vt 0.4270833333333333 1
vt 0.4375 1
vt 0.4479166666666667 1
vt 0.4583333333333333 1
vt 0.46875 1
vt 0.4791666666666667 1
vt 0.4895833333333333 1
vt 0.5 1
vt 0.5104166666666666 1
vt 0.5208333333333334 1
vt 0.53125 1
vt 0.5416666666666666 1
vt 0.5520833333333334 1
vt 0.5625 1
vt 0.5729166666666666 1
vt 0.5833333333333334 1
vt 0.59375 1
vt 0.6041666666666666 1
vt 0.6145833333333334 1
vt 0.625 1
vt 0.6354166666666666 1
vt 0.6458333333333334 1
vt 0.65625 1
vt 0.6666666666666666 1
vt 0.6770833333333334 1
vt 0.6875 1
vt 0.6979166666666666 1
vt 0.7083333333333334 1
vt 0.71875 1
vt 0.7291666666666666 1
vt 0.7395833333333334 1
vt 0.75 1
vt 0.7604166666666666 1
vt 0.7708333333333334 1
vt 0.78125 1
vt 0.7916666666666666 1
vt 0.8020833333333334 1
vt 0.8125 1
vt 0.8229166666666666 1
vt 0.8333333333333334 1
vt 0.84375 1
vt 0.8541666666666666 1
vt 0.8645833333333334 1
vt 0.875 1
vt 0.8854166666666666 1
vt 0.8958333333333334 1
vt 0.90625 1
vt 0.9166666666666666 1
vt 0.9270833333333334 1
vt 0.9375 1
vt 0.9479166666666666 1
vt 0.9583333333333334 1
vt 0.96875 1
vt 0.9791666666666666 1
vt 0.9895833333333334 1
vt 1 1
f 1/1 97/2 98/3
f 1/1 98/3 2/4
f 2/4 98/3 99/5
f 2/4 99/5 3/6
f 3/6 99/5 100/7
f 3/6 100/7 4/8
f 4/8 100/7 101/9
f 4/8 101/9 5/10
f 5/10 101/9 102/11
f 5/10 102/11 6/12
f 6/12 102/11 103/13
f 6/12 103/13 7/14
f 7/14 103/13 104/15
f 7/14 104/15 8/16
f 8/16 104/15 105/17
f 8/16 105/17 9/18
f 9/18 105/17 106/19
f 9/18 106/19 10/20
f 10/20 106/19 107/21
f 10/20 107/21 11/22
f 11/22 107/21 108/23
f 11/22 108/23 12/24
f 12/24 108/23 109/25
f 12/24 109/25 13/26
f 13/26 109/25 110/27
f 13/26 110/27 14/28
f 14/28 110/27 111/29
f 14/28 111/29 15/30
f 15/30 111/29 112/31
f 15/30 112/31 16/32
f 16/32 112/31 113/33
f 16/32 113/33 17/34
f 17/34 113/33 114/35
f 17/34 114/35 18/36
f 18/36 114/35 115/37
f 18/36 115/37 19/38
f 19/38 115/37 116/39
f 19/38 116/39 20/40
f 20/40 116/39 117/41
f 20/40 117/41 21/42
f 21/42 117/41 118/43
f 21/42 118/43 22/44
f 22/44 118/43 119/45
f 22/44 119/45 23/46
f 23/46 119/45 120/47
f 23/46 120/47 24/48
f 24/48 120/47 121/49
f 24/48 121/49 25/50
f 25/50 121/49 122/51
f 25/50 122/51 26/52
f 26/52 122/51 123/53
f 26/52 123/53 27/54
f 27/54 123/53 124/55
f 27/54 124/55 28/56
f 28/56 124/55 125/57
f 28/56 125/57 29/58
f 29/58 125/57 126/59
f 29/58 126/59 30/60
f 30/60 126/59 127/61
f 30/60 127/61 31/62
f 31/62 127/61 128/63
f 31/62 128/63 32/64
f 32/64 128/63 129/65
f 32/64 129/65 33/66
f 33/66 129/65 130/67
f 33/66 130/67 34/68
f 34/68 130/67 131/69
f 34/68 131/69 35/70
f 35/70 131/69 132/71
f 35/70 132/71 36/72
f 36/72 132/71 133/73
f 36/72 133/73 37/74
f 37/74 133/73 134/75
f 37/74 134/75 38/76
f 38/76 134/75 135/77
f 38/76 135/77 39/78
f 39/78 135/77 136/79
f 39/78 136/79 40/80
f 40/80 136/79 137/81
f 40/80 137/81 41/82
f 41/82 137/81 138/83
f 41/82 138/83 42/84
f 42/84 138/83 139/85
f 42/84 139/85 43/86
f 43/86 139/85 140/87
f 43/86 140/87 44/88
f 44/88 140/87 141/89
f 44/88 141/89 45/90
f 45/90 141/89 142/91
f 45/90 142/91 46/92
f 46/92 142/91 143/93
f 46/92 143/93 47/94
f 47/94 143/93 144/95
f 47/94 144/95 48/96
f 48/96 144/95 145/97
f 48/96 145/97 49/98
f 49/98 145/97 146/99
f 49/98 146/99 50/100
f 50/100 146/99 147/101
f 50/100 147/101 51/102
f 51/102 147/101 148/103
f 51/102 148/103 52/104
f 52/104 148/103 149/105
f 52/104 149/105 53/106
f 53/106 149/105 150/107
f 53/106 150/107 54/108
f 54/108 150/107 151/109
f 54/108 151/109 55/110
f 55/110 151/109 152/111
f 55/110 152/111 56/112
f 56/112 152/111 153/113
f 56/112 153/113 57/114
f 57/114 153/113 154/115
f 57/114 154/115 58/116
f 58/116 154/115 155/117
f 58/116 155/117 59/118
f 59/118 155/117 156/119
f 59/118 156/119 60/120
f 60/120 156/119 157/121
f 60/120 157/121 61/122
f 61/122 157/121 158/123
f 61/122 158/123 62/124
f 62/124 158/123 159/125
f 62/124 159/125 63/126
f 63/126 159/125 160/127
f 63/126 160/127 64/128
f 64/128 160/127 161/129
f 64/128 161/129 65/130
f 65/130 161/129 162/131
f 65/130 162/131 66/132
f 66/132 162/131 163/133
f 66/132 163/133 67/134
f 67/134 163/133 164/135
f 67/134 164/135 68/136
f 68/136 164/135 165/137
f 68/136 165/137 69/138
f 69/138 165/137 166/139
f 69/138 166/139 70/140
f 70/140 166/139 167/141
f 70/140 167/141 71/142
f 71/142 167/141 168/143
f 71/142 168/143 72/144
f 72/144 168/143 169/145
f 72/144 169/145 73/146
f 73/146 169/145 170/147
f 73/146 170/147 74/148
f 74/148 170/147 171/149
f 74/148 171/149 75/150
f 75/150 171/149 172/151
f 75/150 172/151 76/152
f 76/152 172/151 173/153
f 76/152 173/153 77/154
f 77/154 173/153 174/155
f 77/154 174/155 78/156
f 78/156 174/155 175/157
f 78/156 175/157 79/158
f 79/158 175/157 176/159
f 79/158 176/159 80/160
f 80/160 176/159 177/161
f 80/160 177/161 81/162
f 81/162 177/161 178/163
f 81/162 178/163 82/164
f 82/164 178/163 179/165
f 82/164 179/165 83/166
f 83/166 179/165 180/167
f 83/166 180/167 84/168
f 84/168 180/167 181/169
f 84/168 181/169 85/170
f 85/170 181/169 182/171
f 85/170 182/171 86/172
f 86/172 182/171 183/173
f 86/172 183/173 87/174
f 87/174 183/173 184/175
f 87/174 184/175 88/176
f 88/176 184/175 185/177
f 88/176 185/177 89/178
f 89/178 185/177 186/179
f 89/178 186/179 90/180
f 90/180 186/179 187/181
f 90/180 187/181 91/182
f 91/182 187/181 188/183
f 91/182 188/183 92/184
f 92/184 188/183 189/185
f 92/184 189/185 93/186
f 93/186 189/185 190/187
f 93/186 190/187 94/188
f 94/188 190/187 191/189
f 94/188 191/189 95/190
f 95/190 191/189 192/191
f 95/190 192/191 96/192
f 96/192 192/191 97/193
f 96/192 97/193 1/194
f 97/2 193/195 194/196
f 97/2 194/196 98/3
f 98/3 194/196 195/197
f 98/3 195/197 99/5
f 99/5 195/197 196/198
f 99/5 196/198 100/7
f 100/7 196/198 197/199
f 100/7 197/199 101/9
f 101/9 197/199 198/200
f 101/9 198/200 102/11
f 102/11 198/200 199/201
f 102/11 199/201 103/13
f 103/13 199/201 200/202
f 103/13 200/202 104/15
f 104/15 200/202 201/203
f 104/15 201/203 105/17
f 105/17 201/203 202/204
f 105/17 202/204 106/19
f 106/19 202/204 203/205
f 106/19 203/205 107/21
f 107/21 203/205 204/206
f 107/21 204/206 108/23
f 108/23 204/206 205/207
f 108/23 205/207 109/25
f 109/25 205/207 206/208
f 109/25 206/208 110/27
f 110/27 206/208 207/209
f 110/27 207/209 111/29
f 111/29 207/209 208/210
f 111/29 208/210 112/31
f 112/31 208/210 209/211
f 112/31 209/211 113/33
f 113/33 209/211 210/212
f 113/33 210/212 114/35
f 114/35 210/212 211/213
f 114/35 211/213 115/37
f 115/37 211/213 212/214
f 115/37 212/214 116/39
f 116/39 212/214 213/215
f 116/39 213/215 117/41
f 117/41 213/215 214/216
f 117/41 214/216 118/43
f 118/43 214/216 215/217
f 118/43 215/217 119/45
f 119/45 215/217 216/218
f 119/45 216/218 120/47
f 120/47 216/218 217/219
f 120/47 217/219 121/49
f 121/49 217/219 218/220
f 121/49 218/220 122/51
f 122/51 218/220 219/221
f 122/51 219/221 123/53
f 123/53 219/221 220/222
f 123/53 220/222 124/55
f 124/55 220/222 221/223
f 124/55 221/223 125/57
f 125/57 221/223 222/224
f 125/57 222/224 126/59
f 126/59 222/224 223/225
f 126/59 223/225 127/61
f 127/61 223/225 224/226
f 127/61 224/226 128/63
f 128/63 224/226 225/227
f 128/63 225/227 129/65
f 129/65 225/227 226/228
f 129/65 226/228 130/67
f 130/67 226/228 227/229
f 130/67 227/229 131/69
f 131/69 227/229 228/230
f 131/69 228/230 132/71
f 132/71 228/230 229/231
f 132/71 229/231 133/73
f 133/73 229/231 230/232
f 133/73 230/232 134/75
f 134/75 230/232 231/233
f 134/75 231/233 135/77
f 135/77 231/233 232/234
f 135/77 232/234 136/79
f 136/79 232/234 233/235
f 136/79 233/235 137/81
f 137/81 233/235 234/236
f 137/81 234/236 138/83
f 138/83 234/236 235/237
f 138/83 235/237 139/85
f 139/85 235/237 236/238
f 139/85 236/238 140/87
f 140/87 236/238 237/239
f 140/87 237/239 141/89
f 141/89 237/239 238/240
f 141/89 238/240 142/91
f 142/91 238/240 239/241
f 142/91 239/241 143/93
f 143/93 239/241 240/242
f 143/93 240/242 144/95
f 144/95 240/242 241/243
f 144/95 241/243 145/97
f 145/97 241/243 242/244
f 145/97 242/244 146/99
f 146/99 242/244 243/245
f 146/99 243/245 147/101
f 147/101 243/245 244/246
f 147/101 244/246 148/103
f 148/103 244/246 245/247
f 148/103 245/247 149/105
f 149/105 245/247 246/248
f 149/105 246/248 150/107
f 150/107 246/248 247/249
f 150/107 247/249 151/109
f 151/109 247/249 248/250
f 151/109 248/250 152/111
f 152/111 248/250 249/251
f 152/111 249/251 153/113
f 153/113 249/251 250/252
f 153/113 250/252 154/115
f 154/115 250/252 251/253
f 154/115 251/253 155/117
f 155/117 251/253 252/254
f 155/117 252/254 156/119
f 156/119 252/254 253/255
f 156/119 253/255 157/121
f 157/121 253/255 254/256
f 157/121 254/256 158/123
f 158/123 254/256 255/257
f 158/123 255/257 159/125
f 159/125 255/257 256/258
f 159/125 256/258 160/127
f 160/127 256/258 257/259
f 160/127 257/259 161/129
f 161/129 257/259 258/260
f 161/129 258/260 162/131
f 162/131 258/260 259/261
f 162/131 259/261 163/133
f 163/133 259/261 260/262
f 163/133 260/262 164/135
f 164/135 260/262 261/263
f 164/135 261/263 165/137
f 165/137 261/263 262/264
f 165/137 262/264 166/139
f 166/139 262/264 263/265
f 166/139 263/265 167/141
f 167/141 263/265 264/266
f 167/141 264/266 168/143
f 168/143 264/266 265/267
f 168/143 265/267 169/145
f 169/145 265/267 266/268
f 169/145 266/268 170/147
f 170/147 266/268 267/269
f 170/147 267/269 171/149
f 171/149 267/269 268/270
f 171/149 268/270 172/151
f 172/151 268/270 269/271
f 172/151 269/271 173/153
f 173/153 269/271 270/272
f 173/153 270/272 174/155
f 174/155 270/272 271/273
f 174/155 271/273 175/157
f 175/157 271/273 272/274
f 175/157 272/274 176/159
f 176/159 272/274 273/275
f 176/159 273/275 177/161
f 177/161 273/275 274/276
f 177/161 274/276 178/163
f 178/163 274/276 275/277
f 178/163 275/277 179/165
f 179/165 275/277 276/278
f 179/165 276/278 180/167
f 180/167 276/278 277/279
f 180/167 277/279 181/169
f 181/169 277/279 278/280
f 181/169 278/280 182/171
f 182/171 278/280 279/281
f 182/171 279/281 183/173
f 183/173 279/281 280/282
f 183/173 280/282 184/175
f 184/175 280/282 281/283
f 184/175 281/283 185/177
f 185/177 281/283 282/284
f 185/177 282/284 186/179
f 186/179 282/284 283/285
f 186/179 283/285 187/181
f 187/181 283/285 284/286
f 187/181 284/286 188/183
f 188/183 284/286 285/287
f 188/183 285/287 189/185
f 189/185 285/287 286/288
f 189/185 286/288 190/187
f 190/187 286/288 287/289
f 190/187 287/289 191/189
f 191/189 287/289 288/290
f 191/189 288/290 192/191
f 192/191 288/290 193/291
f 192/191 193/291 97/193
f 193/195 289/292 290/293
f 193/195 290/293 194/196
f 194/196 290/293 291/294
f 194/196 291/294 195/197
f 195/197 291/294 292/295
f 195/197 292/295 196/198
f 196/198 292/295 293/296
f 196/198 293/296 197/199
f 197/199 293/296 294/297
f 197/199 294/297 198/200
f 198/200 294/297 295/298
f 198/200 295/298 199/201
f 199/201 295/298 296/299
f 199/201 296/299 200/202
f 200/202 296/299 297/300
f 200/202 297/300 201/203
f 201/203 297/300 298/301
f 201/203 298/301 202/204
f 202/204 298/301 299/302
f 202/204 299/302 203/205
f 203/205 299/302 300/303
f 203/205 300/303 204/206
f 204/206 300/303 301/304
f 204/206 301/304 205/207
f 205/207 301/304 302/305
f 205/207 302/305 206/208
f 206/208 302/305 303/306
f 206/208 303/306 207/209
f 207/209 303/306 304/307
f 207/209 304/307 208/210
f 208/210 304/307 305/308
f 208/210 305/308 209/211
f 209/211 305/308 306/309
f 209/211 306/309 210/212
f 210/212 306/309 307/310
f 210/212 307/310 211/213
f 211/213 307/310 308/311
f 211/213 308/311 212/214
f 212/214 308/311 309/312
f 212/214 309/312 213/215
f 213/215 309/312 310/313
f 213/215 310/313 214/216
f 214/216 310/313 311/314
f 214/216 311/314 215/217
f 215/217 311/314 312/315
f 215/217 312/315 216/218
f 216/218 312/315 313/316
f 216/218 313/316 217/219
f 217/219 313/316 314/317
f 217/219 314/317 218/220
f 218/220 314/317 315/318
f 218/220 315/318 219/221
f 219/221 315/318 316/319
f 219/221 316/319 220/222
f 220/222 316/319 317/320
f 220/222 317/320 221/223
f 221/223 317/320 318/321
f 221/223 318/321 222/224
f 222/224 318/321 319/322
f 222/224 319/322 223/225
f 223/225 319/322 320/323
f 223/225 320/323 224/226
f 224/226 320/323 321/324
f 224/226 321/324 225/227
f 225/227 321/324 322/325
f 225/227 322/325 226/228
f 226/228 322/325 323/326
f 226/228 323/326 227/229
f 227/229 323/326 324/327
f 227/229 324/327 228/230
f 228/230 324/327 325/328
f 228/230 325/328 229/231
f 229/231 325/328 326/329
f 229/231 326/329 230/232
f 230/232 326/329 327/330
f 230/232 327/330 231/233
f 231/233 327/330 328/331
f 231/233 328/331 232/234
f 232/234 328/331 329/332
f 232/234 329/332 233/235
f 233/235 329/332 330/333
f 233/235 330/333 234/236
f 234/236 330/333 331/334
f 234/236 331/334 235/237
f 235/237 331/334 332/335
f 235/237 332/335 236/238
f 236/238 332/335 333/336
f 236/238 333/336 237/239
f 237/239 333/336 334/337
f 237/239 334/337 238/240
f 238/240 334/337 335/338
f 238/240 335/338 239/241
f 239/241 335/338 336/339
f 239/241 336/339 240/242
f 240/242 336/339 337/340
f 240/242 337/340 241/243
f 241/243 337/340 338/341
f 241/243 338/341 242/244
f 242/244 338/341 339/342
f 242/244 339/342 243/245
f 243/245 339/342 340/343
f 243/245 340/343 244/246
f 244/246 340/343 341/344
f 244/246 341/344 245/247
f 245/247 341/344 342/345
f 245/247 342/345 246/248
f 246/248 342/345 343/346
f 246/248 343/346 247/249
f 247/249 343/346 344/347
f 247/249 344/347 248/250
f 248/250 344/347 345/348
f 248/250 345/348 249/251
f 249/251 345/348 346/349
f 249/251 346/349 250/252
f 250/252 346/349 347/350
f 250/252 347/350 251/253
f 251/253 347/350 348/351
f 251/253 348/351 252/254
f 252/254 348/351 349/352
f 252/254 349/352 253/255
f 253/255 349/352 350/353
f 253/255 350/353 254/256
f 254/256 350/353 351/354
f 254/256 351/354 255/257
f 255/257 351/354 352/355
f 255/257 352/355 256/258
f 256/258 352/355 353/356
f 256/258 353/356 257/259
f 257/259 353/356 354/357
f 257/259 354/357 258/260
f 258/260 354/357 355/358
f 258/260 355/358 259/261
f 259/261 355/358 356/359
f 259/261 356/359 260/262
f 260/262 356/359 357/360
f 260/262 357/360 261/263
f 261/263 357/360 358/361
f 261/263 358/361 262/264
f 262/264 358/361 359/362
f 262/264 359/362 263/265
f 263/265 359/362 360/363
f 263/265 360/363 264/266
f 264/266 360/363 361/364
f 264/266 361/364 265/267
f 265/267 361/364 362/365
f 265/267 362/365 266/268
f 266/268 362/365 363/366
f 266/268 363/366 267/269
f 267/269 363/366 364/367
f 267/269 364/367 268/270
f 268/270 364/367 365/368
f 268/270 365/368 269/271
f 269/271 365/368 366/369
f 269/271 366/369 270/272
f 270/272 366/369 367/370
f 270/272 367/370 271/273
f 271/273 367/370 368/371
f 271/273 368/371 272/274
f 272/274 368/371 369/372
f 272/274 369/372 273/275
f 273/275 369/372 370/373
f 273/275 370/373 274/276
f 274/276 370/373 371/374
f 274/276 371/374 275/277
f 275/277 371/374 372/375
f 275/277 372/375 276/278
f 276/278 372/375 373/376
f 276/278 373/376 277/279
f 277/279 373/376 374/377
f 277/279 374/377 278/280
f 278/280 374/377 375/378
f 278/280 375/378 279/281
f 279/281 375/378 376/379
f 279/281 376/379 280/282
f 280/282 376/379 377/380
f 280/282 377/380 281/283
f 281/283 377/380 378/381
f 281/283 378/381 282/284
f 282/284 378/381 379/382
f 282/284 379/382 283/285
f 283/285 379/382 380/383
f 283/285 380/383 284/286
f 284/286 380/383 381/384
f 284/286 381/384 285/287
f 285/287 381/384 382/385
f 285/287 382/385 286/288
f 286/288 382/385 383/386
f 286/288 383/386 287/289
f 287/289 383/386 384/387
f 287/289 384/387 288/290
f 288/290 384/387 289/388
f 288/290 289/388 193/291
f 289/292 385/389 386/390
f 289/292 386/390 290/293
f 290/293 386/390 387/391
f 290/293 387/391 291/294
f 291/294 387/391 388/392
f 291/294 388/392 292/295
f 292/295 388/392 389/393
f 292/295 389/393 293/296
f 293/296 389/393 390/394
f 293/296 390/394 294/297
f 294/297 390/394 391/395
f 294/297 391/395 295/298
f 295/298 391/395 392/396
f 295/298 392/396 296/299
f 296/299 392/396 393/397
f 296/299 393/397 297/300
f 297/300 393/397 394/398
f 297/300 394/398 298/301
f 298/301 394/398 395/399
f 298/301 395/399 299/302
f 299/302 395/399 396/400
f 299/302 396/400 300/303
f 300/303 396/400 397/401
f 300/303 397/401 301/304
f 301/304 397/401 398/402
f 301/304 398/402 302/305
f 302/305 398/402 399/403
f 302/305 399/403 303/306
f 303/306 399/403 400/404
f 303/306 400/404 304/307
f 304/307 400/404 401/405
f 304/307 401/405 305/308
f 305/308 401/405 402/406
f 305/308 402/406 306/309
f 306/309 402/406 403/407
f 306/309 403/407 307/310
f 307/310 403/407 404/408
f 307/310 404/408 308/311
f 308/311 404/408 405/409
f 308/311 405/409 309/312
f 309/312 405/409 406/410
f 309/312 406/410 310/313
f 310/313 406/410 407/411
f 310/313 407/411 311/314
f 311/314 407/411 408/412
f 311/314 408/412 312/315
f 312/315 408/412 409/413
f 312/315 409/413 313/316
f 313/316 409/413 410/414
f 313/316 410/414 314/317
f 314/317 410/414 411/415
f 314/317 411/415 315/318
f 315/318 411/415 412/416
f 315/318 412/416 316/319
f 316/319 412/416 413/417
f 316/319 413/417 317/320
f 317/320 413/417 414/418
f 317/320 414/418 318/321
f 318/321 414/418 415/419
f 318/321 415/419 319/322
f 319/322 415/419 416/420
f 319/322 416/420 320/323
f 320/323 416/420 417/421
f 320/323 417/421 321/324
f 321/324 417/421 418/422
f 321/324 418/422 322/325
f 322/325 418/422 419/423
f 322/325 419/423 323/326
f 323/326 419/423 420/424
f 323/326 420/424 324/327
f 324/327 420/424 421/425
f 324/327 421/425 325/328
f 325/328 421/425 422/426
f 325/328 422/426 326/329
f 326/329 422/426 423/427
f 326/329 423/427 327/330
f 327/330 423/427 424/428
f 327/330 424/428 328/331
f 328/331 424/428 425/429
f 328/331 425/429 329/332
f 329/332 425/429 426/430
f 329/332 426/430 330/333
f 330/333 426/430 427/431
f 330/333 427/431 331/334
f 331/334 427/431 428/432
f 331/334 428/432 332/335
f 332/335 428/432 429/433
f 332/335 429/433 333/336
f 333/336 429/433 430/434
f 333/336 430/434 334/337
f 334/337 430/434 431/435
f 334/337 431/435 335/338
f 335/338 431/435 432/436
f 335/338 432/436 336/339
f 336/339 432/436 433/437
f 336/339 433/437 337/340
f 337/340 433/437 434/438
f 337/340 434/438 338/341
f 338/341 434/438 435/439
f 338/341 435/439 339/342
f 339/342 435/439 436/440
f 339/342 436/440 340/343
f 340/343 436/440 437/441
f 340/343 437/441 341/344
f 341/344 437/441 438/442
f 341/344 438/442 342/345
f 342/345 438/442 439/443
f 342/345 439/443 343/346
f 343/346 439/443 440/444
f 343/346 440/444 344/347
f 344/347 440/444 441/445
f 344/347 441/445 345/348
f 345/348 441/445 442/446
f 345/348 442/446 346/349
f 346/349 442/446 443/447
f 346/349 443/447 347/350
f 347/350 443/447 444/448
f 347/350 444/448 348/351
f 348/351 444/448 445/449
f 348/351 445/449 349/352
f 349/352 445/449 446/450
f 349/352 446/450 350/353
f 350/353 446/450 447/451
f 350/353 447/451 351/354
f 351/354 447/451 448/452
f 351/354 448/452 352/355
f 352/355 448/452 449/453
f 352/355 449/453 353/356
f 353/356 449/453 450/454
f 353/356 450/454 354/357
f 354/357 450/454 451/455
f 354/357 451/455 355/358
f 355/358 451/455 452/456
f 355/358 452/456 356/359
f 356/359 452/456 453/457
f 356/359 453/457 357/360
f 357/360 453/457 454/458
f 357/360 454/458 358/361
f 358/361 454/458 455/459
f 358/361 455/459 359/362
f 359/362 455/459 456/460
f 359/362 456/460 360/363
f 360/363 456/460 457/461
f 360/363 457/461 361/364
f 361/364 457/461 458/462
f 361/364 458/462 362/365
f 362/365 458/462 459/463
f 362/365 459/463 363/366
f 363/366 459/463 460/464
f 363/366 460/464 364/367
f 364/367 460/464 461/465
f 364/367 461/465 365/368
f 365/368 461/465 462/466
f 365/368 462/466 366/369
f 366/369 462/466 463/467
f 366/369 463/467 367/370
f 367/370 463/467 464/468
f 367/370 464/468 368/371
f 368/371 464/468 465/469
f 368/371 465/469 369/372
f 369/372 465/469 466/470
f 369/372 466/470 370/373
f 370/373 466/470 467/471
f 370/373 467/471 371/374
f 371/374 467/471 468/472
f 371/374 468/472 372/375
f 372/375 468/472 469/473
f 372/375 469/473 373/376
f 373/376 469/473 470/474
f 373/376 470/474 374/377
f 374/377 470/474 471/475
f 374/377 471/475 375/378
f 375/378 471/475 472/476
f 375/378 472/476 376/379
f 376/379 472/476 473/477
f 376/379 473/477 377/380
f 377/380 473/477 474/478
f 377/380 474/478 378/381
f 378/381 474/478 475/479
f 378/381 475/479 379/382
f 379/382 475/479 476/480
f 379/382 476/480 380/383
f 380/383 476/480 477/481
f 380/383 477/481 381/384
f 381/384 477/481 478/482
f 381/384 478/482 382/385
f 382/385 478/482 479/483
f 382/385 479/483 383/386
f 383/386 479/483 480/484
f 383/386 480/484 384/387
f 384/387 480/484 385/485
f 384/387 385/485 289/388
f 385/389 481/486 482/487
f 385/389 482/487 386/390
f 386/390 482/487 483/488
f 386/390 483/488 387/391
f 387/391 483/488 484/489
f 387/391 484/489 388/392
f 388/392 484/489 485/490
f 388/392 485/490 389/393
f 389/393 485/490 486/491
f 389/393 486/491 390/394
f 390/394 486/491 487/492
f 390/394 487/492 391/395
f 391/395 487/492 488/493
f 391/395 488/493 392/396
f 392/396 488/493 489/494
f 392/396 489/494 393/397
f 393/397 489/494 490/495
f 393/397 490/495 394/398
f 394/398 490/495 491/496
f 394/398 491/496 395/399
f 395/399 491/496 492/497
f 395/399 492/497 396/400
f 396/400 492/497 493/498
f 396/400 493/498 397/401
f 397/401 493/498 494/499
f 397/401 494/499 398/402
f 398/402 494/499 495/500
f 398/402 495/500 399/403
f 399/403 495/500 496/501
f 399/403 496/501 400/404
f 400/404 496/501 497/502
f 400/404 497/502 401/405
f 401/405 497/502 498/503
f 401/405 498/503 402/406
f 402/406 498/503 499/504
f 402/406 499/504 403/407
f 403/407 499/504 500/505
f 403/407 500/505 404/408
f 404/408 500/505 501/506
f 404/408 501/506 405/409
f 405/409 501/506 502/507
f 405/409 502/507 406/410
f 406/410 502/507 503/508
f 406/410 503/508 407/411
f 407/411 503/508 504/509
f 407/411 504/509 408/412
f 408/412 504/509 505/510
f 408/412 505/510 409/413
f 409/413 505/510 506/511
f 409/413 506/511 410/414
f 410/414 506/511 507/512
f 410/414 507/512 411/415
f 411/415 507/512 508/513
f 411/415 508/513 412/416
f 412/416 508/513 509/514
f 412/416 509/514 413/417
f 413/417 509/514 510/515
f 413/417 510/515 414/418
f 414/418 510/515 511/516
f 414/418 511/516 415/419
f 415/419 511/516 512/517
f 415/419 512/517 416/420
f 416/420 512/517 513/518
f 416/420 513/518 417/421
f 417/421 513/518 514/519
f 417/421 514/519 418/422
f 418/422 514/519 515/520
f 418/422 515/520 419/423
f 419/423 515/520 516/521
f 419/423 516/521 420/424
f 420/424 516/521 517/522
f 420/424 517/522 421/425
f 421/425 517/522 518/523
f 421/425 518/523 422/426
f 422/426 518/523 519/524
f 422/426 519/524 423/427
f 423/427 519/524 520/525
f 423/427 520/525 424/428
f 424/428 520/525 521/526
f 424/428 521/526 425/429
f 425/429 521/526 522/527
f 425/429 522/527 426/430
f 426/430 522/527 523/528
f 426/430 523/528 427/431
f 427/431 523/528 524/529
f 427/431 524/529 428/432
f 428/432 524/529 525/530
f 428/432 525/530 429/433
f 429/433 525/530 526/531
f 429/433 526/531 430/434
f 430/434 526/531 527/532
f 430/434 527/532 431/435
f 431/435 527/532 528/533
f 431/435 528/533 432/436
f 432/436 528/533 529/534
f 432/436 529/534 433/437
f 433/437 529/534 530/535
f 433/437 530/535 434/438
f 434/438 530/535 531/536
f 434/438 531/536 435/439
f 435/439 531/536 532/537
f 435/439 532/537 436/440
f 436/440 532/537 533/538
f 436/440 533/538 437/441
f 437/441 533/538 534/539
f 437/441 534/539 438/442
f 438/442 534/539 535/540
f 438/442 535/540 439/443
f 439/443 535/540 536/541
f 439/443 536/541 440/444
f 440/444 536/541 537/542
f 440/444 537/542 441/445
f 441/445 537/542 538/543
f 441/445 538/543 442/446
f 442/446 538/543 539/544
f 442/446 539/544 443/447
f 443/447 539/544 540/545
f 443/447 540/545 444/448
f 444/448 540/545 541/546
f 444/448 541/546 445/449
f 445/449 541/546 542/547
f 445/449 542/547 446/450
f 446/450 542/547 543/548
f 446/450 543/548 447/451
f 447/451 543/548 544/549
f 447/451 544/549 448/452
f 448/452 544/549 545/550
f 448/452 545/550 449/453
f 449/453 545/550 546/551
f 449/453 546/551 450/454
f 450/454 546/551 547/552
f 450/454 547/552 451/455
f 451/455 547/552 548/553
f 451/455 548/553 452/456
f 452/456 548/553 549/554
f 452/456 549/554 453/457
f 453/457 549/554 550/555
f 453/457 550/555 454/458
f 454/458 550/555 551/556
f 454/458 551/556 455/459
f 455/459 551/556 552/557
f 455/459 552/557 456/460
f 456/460 552/557 553/558
f 456/460 553/558 457/461
f 457/461 553/558 554/559
f 457/461 554/559 458/462
f 458/462 554/559 555/560
f 458/462 555/560 459/463
f 459/463 555/560 556/561
f 459/463 556/561 460/464
f 460/464 556/561 557/562
f 460/464 557/562 461/465
f 461/465 557/562 558/563
f 461/465 558/563 462/466
f 462/466 558/563 559/564
f 462/466 559/564 463/467
f 463/467 559/564 560/565
f 463/467 560/565 464/468
f 464/468 560/565 561/566
f 464/468 561/566 465/469
f 465/469 561/566 562/567
f 465/469 562/567 466/470
f 466/470 562/567 563/568
f 466/470 563/568 467/471
f 467/471 563/568 564/569
f 467/471 564/569 468/472
f 468/472 564/569 565/570
f 468/472 565/570 469/473
f 469/473 565/570 566/571
f 469/473 566/571 470/474
f 470/474 566/571 567/572
f 470/474 567/572 471/475
f 471/475 567/572 568/573
f 471/475 568/573 472/476
f 472/476 568/573 569/574
f 472/476 569/574 473/477
f 473/477 569/574 570/575
f 473/477 570/575 474/478
f 474/478 570/575 571/576
f 474/478 571/576 475/479
f 475/479 571/576 572/577
f 475/479 572/577 476/480
f 476/480 572/577 573/578
f 476/480 573/578 477/481
f 477/481 573/578 574/579
f 477/481 574/579 478/482
f 478/482 574/579 575/580
f 478/482 575/580 479/483
f 479/483 575/580 576/581
f 479/483 576/581 480/484
f 480/484 576/581 481/582
f 480/484 481/582 385/485
f 481/486 577/583 578/584
f 481/486 578/584 482/487
f 482/487 578/584 579/585
f 482/487 579/585 483/488
f 483/488 579/585 580/586
f 483/488 580/586 484/489
f 484/489 580/586 581/587
f 484/489 581/587 485/490
f 485/490 581/587 582/588
f 485/490 582/588 486/491
f 486/491 582/588 583/589
f 486/491 583/589 487/492
f 487/492 583/589 584/590
f 487/492 584/590 488/493
f 488/493 584/590 585/591
f 488/493 585/591 489/494
f 489/494 585/591 586/592
f 489/494 586/592 490/495
f 490/495 586/592 587/593
f 490/495 587/593 491/496
f 491/496 587/593 588/594
f 491/496 588/594 492/497
f 492/497 588/594 589/595
f 492/497 589/595 493/498
f 493/498 589/595 590/596
f 493/498 590/596 494/499
f 494/499 590/596 591/597
f 494/499 591/597 495/500
f 495/500 591/597 592/598
f 495/500 592/598 496/501
f 496/501 592/598 593/599
f 496/501 593/599 497/502
f 497/502 593/599 594/600
f 497/502 594/600 498/503
f 498/503 594/600 595/601
f 498/503 595/601 499/504
f 499/504 595/601 596/602
f 499/504 596/602 500/505
f 500/505 596/602 597/603
f 500/505 597/603 501/506
f 501/506 597/603 598/604
f 501/506 598/604 502/507
f 502/507 598/604 599/605
f 502/507 599/605 503/508
f 503/508 599/605 600/606
f 503/508 600/606 504/509
f 504/509 600/606 601/607
f 504/509 601/607 505/510
f 505/510 601/607 602/608
f 505/510 602/608 506/511
f 506/511 602/608 603/609
f 506/511 603/609 507/512
f 507/512 603/609 604/610
f 507/512 604/610 508/513
f 508/513 604/610 605/611
f 508/513 605/611 509/514
f 509/514 605/611 606/612
f 509/514 606/612 510/515
f 510/515 606/612 607/613
f 510/515 607/613 511/516
f 511/516 607/613 608/614
f 511/516 608/614 512/517
f 512/517 608/614 609/615
f 512/517 609/615 513/518
f 513/518 609/615 610/616
f 513/518 610/616 514/519
f 514/519 610/616 611/617
f 514/519 611/617 515/520
f 515/520 611/617 612/618
f 515/520 612/618 516/521
f 516/521 612/618 613/619
f 516/521 613/619 517/522
f 517/522 613/619 614/620
f 517/522 614/620 518/523
f 518/523 614/620 615/621
f 518/523 615/621 519/524
f 519/524 615/621 616/622
f 519/524 616/622 520/525
f 520/525 616/622 617/623
f 520/525 617/623 521/526
f 521/526 617/623 618/624
f 521/526 618/624 522/527
f 522/527 618/624 619/625
f 522/527 619/625 523/528
f 523/528 619/625 620/626
f 523/528 620/626 524/529
f 524/529 620/626 621/627
f 524/529 621/627 525/530
f 525/530 621/627 622/628
f 525/530 622/628 526/531
f 526/531 622/628 623/629
f 526/531 623/629 527/532
f 527/532 623/629 624/630
f 527/532 624/630 528/533
f 528/533 624/630 625/631
f 528/533 625/631 529/534
f 529/534 625/631 626/632
f 529/534 626/632 530/535
f 530/535 626/632 627/633
f 530/535 627/633 531/536
f 531/536 627/633 628/634
f 531/536 628/634 532/537
f 532/537 628/634 629/635
f 532/537 629/635 533/538
f 533/538 629/635 630/636
f 533/538 630/636 534/539
f 534/539 630/636 631/637
f 534/539 631/637 535/540
f 535/540 631/637 632/638
f 535/540 632/638 536/541
f 536/541 632/638 633/639
f 536/541 633/639 537/542
f 537/542 633/639 634/640
f 537/542 634/640 538/543
f 538/543 634/640 635/641
f 538/543 635/641 539/544
f 539/544 635/641 636/642
f 539/544 636/642 540/545
f 540/545 636/642 637/643
f 540/545 637/643 541/546
f 541/546 637/643 638/644
f 541/546 638/644 542/547
f 542/547 638/644 639/645
f 542/547 639/645 543/548
f 543/548 639/645 640/646
f 543/548 640/646 544/549
f 544/549 640/646 641/647
f 544/549 641/647 545/550
f 545/550 641/647 642/648
f 545/550 642/648 546/551
f 546/551 642/648 643/649
f 546/551 643/649 547/552
f 547/552 643/649 644/650
f 547/552 644/650 548/553
f 548/553 644/650 645/651
f 548/553 645/651 549/554
f 549/554 645/651 646/652
f 549/554 646/652 550/555
f 550/555 646/652 647/653
f 550/555 647/653 551/556
f 551/556 647/653 648/654
f 551/556 648/654 552/557
f 552/557 648/654 649/655
f 552/557 649/655 553/558
f 553/558 649/655 650/656
f 553/558 650/656 554/559
f 554/559 650/656 651/657
f 554/559 651/657 555/560
f 555/560 651/657 652/658
f 555/560 652/658 556/561
f 556/561 652/658 653/659
f 556/561 653/659 557/562
f 557/562 653/659 654/660
f 557/562 654/660 558/563
f 558/563 654/660 655/661
f 558/563 655/661 559/564
f 559/564 655/661 656/662
f 559/564 656/662 560/565
f 560/565 656/662 657/663
f 560/565 657/663 561/566
f 561/566 657/663 658/664
f 561/566 658/664 562/567
f 562/567 658/664 659/665
f 562/567 659/665 563/568
f 563/568 659/665 660/666
f 563/568 660/666 564/569
f 564/569 660/666 661/667
f 564/569 661/667 565/570
f 565/570 661/667 662/668
f 565/570 662/668 566/571
f 566/571 662/668 663/669
f 566/571 663/669 567/572
f 567/572 663/669 664/670
f 567/572 664/670 568/573
f 568/573 664/670 665/671
f 568/573 665/671 569/574
f 569/574 665/671 666/672
f 569/574 666/672 570/575
f 570/575 666/672 667/673
f 570/575 667/673 571/576
f 571/576 667/673 668/674
f 571/576 668/674 572/577
f 572/577 668/674 669/675
f 572/577 669/675 573/578
f 573/578 669/675 670/676
f 573/578 670/676 574/579
f 574/579 670/676 671/677
f 574/579 671/677 575/580
f 575/580 671/677 672/678
f 575/580 672/678 576/581
f 576/581 672/678 577/679
f 576/581 577/679 481/582
f 577/583 673/680 674/681
f 577/583 674/681 578/584
f 578/584 674/681 675/682
f 578/584 675/682 579/585
f 579/585 675/682 676/683
f 579/585 676/683 580/586
f 580/586 676/683 677/684
f 580/586 677/684 581/587
f 581/587 677/684 678/685
f 581/587 678/685 582/588
f 582/588 678/685 679/686
f 582/588 679/686 583/589
f 583/589 679/686 680/687
f 583/589 680/687 584/590
f 584/590 680/687 681/688
f 584/590 681/688 585/591
f 585/591 681/688 682/689
f 585/591 682/689 586/592
f 586/592 682/689 683/690
f 586/592 683/690 587/593
f 587/593 683/690 684/691
f 587/593 684/691 588/594
f 588/594 684/691 685/692
f 588/594 685/692 589/595
f 589/595 685/692 686/693
f 589/595 686/693 590/596
f 590/596 686/693 687/694
f 590/596 687/694 591/597
f 591/597 687/694 688/695
f 591/597 688/695 592/598
f 592/598 688/695 689/696
f 592/598 689/696 593/599
f 593/599 689/696 690/697
f 593/599 690/697 594/600
f 594/600 690/697 691/698
f 594/600 691/698 595/601
f 595/601 691/698 692/699
f 595/601 692/699 596/602
f 596/602 692/699 693/700
f 596/602 693/700 597/603
f 597/603 693/700 694/701
f 597/603 694/701 598/604
f 598/604 694/701 695/702
f 598/604 695/702 599/605
f 599/605 695/702 696/703
f 599/605 696/703 600/606
f 600/606 696/703 697/704
f 600/606 697/704 601/607
f 601/607 697/704 698/705
f 601/607 698/705 602/608
f 602/608 698/705 699/706
f 602/608 699/706 603/609
f 603/609 699/706 700/707
f 603/609 700/707 604/610
f 604/610 700/707 701/708
f 604/610 701/708 605/611
f 605/611 701/708 702/709
f 605/611 702/709 606/612
f 606/612 702/709 703/710
f 606/612 703/710 607/613
f 607/613 703/710 704/711
f 607/613 704/711 608/614
f 608/614 704/711 705/712
f 608/614 705/712 609/615
f 609/615 705/712 706/713
f 609/615 706/713 610/616
f 610/616 706/713 707/714
f 610/616 707/714 611/617
f 611/617 707/714 708/715
f 611/617 708/715 612/618
f 612/618 708/715 709/716
f 612/618 709/716 613/619
f 613/619 709/716 710/717
f 613/619 710/717 614/620
f 614/620 710/717 711/718
f 614/620 711/718 615/621
f 615/621 711/718 712/719
f 615/621 712/719 616/622
f 616/622 712/719 713/720
f 616/622 713/720 617/623
f 617/623 713/720 714/721
f 617/623 714/721 618/624
f 618/624 714/721 715/722
f 618/624 715/722 619/625
f 619/625 715/722 716/723
f 619/625 716/723 620/626
f 620/626 716/723 717/724
f 620/626 717/724 621/627
f 621/627 717/724 718/725
f 621/627 718/725 622/628
f 622/628 718/725 719/726
f 622/628 719/726 623/629
f 623/629 719/726 720/727
f 623/629 720/727 624/630
f 624/630 720/727 721/728
f 624/630 721/728 625/631
f 625/631 721/728 722/729
f 625/631 722/729 626/632
f 626/632 722/729 723/730
f 626/632 723/730 627/633
f 627/633 723/730 724/731
f 627/633 724/731 628/634
f 628/634 724/731 725/732
f 628/634 725/732 629/635
f 629/635 725/732 726/733
f 629/635 726/733 630/636
f 630/636 726/733 727/734
f 630/636 727/734 631/637
f 631/637 727/734 728/735
f 631/637 728/735 632/638
f 632/638 728/735 729/736
f 632/638 729/736 633/639
f 633/639 729/736 730/737
f 633/639 730/737 634/640
f 634/640 730/737 731/738
f 634/640 731/738 635/641
f 635/641 731/738 732/739
f 635/641 732/739 636/642
f 636/642 732/739 733/740
f 636/642 733/740 637/643
f 637/643 733/740 734/741
f 637/643 734/741 638/644
f 638/644 734/741 735/742
f 638/644 735/742 639/645
f 639/645 735/742 736/743
f 639/645 736/743 640/646
f 640/646 736/743 737/744
f 640/646 737/744 641/647
f 641/647 737/744 738/745
f 641/647 738/745 642/648
f 642/648 738/745 739/746
f 642/648 739/746 643/649
f 643/649 739/746 740/747
f 643/649 740/747 644/650
f 644/650 740/747 741/748
f 644/650 741/748 645/651
f 645/651 741/748 742/749
f 645/651 742/749 646/652
f 646/652 742/749 743/750
f 646/652 743/750 647/653
f 647/653 743/750 744/751
f 647/653 744/751 648/654
f 648/654 744/751 745/752
f 648/654 745/752 649/655
f 649/655 745/752 746/753
f 649/655 746/753 650/656
f 650/656 746/753 747/754
f 650/656 747/754 651/657
f 651/657 747/754 748/755
f 651/657 748/755 652/658
f 652/658 748/755 749/756
f 652/658 749/756 653/659
f 653/659 749/756 750/757
f 653/659 750/757 654/660
f 654/660 750/757 751/758
f 654/660 751/758 655/661
f 655/661 751/758 752/759
f 655/661 752/759 656/662
f 656/662 752/759 753/760
f 656/662 753/760 657/663
f 657/663 753/760 754/761
f 657/663 754/761 658/664
f 658/664 754/761 755/762
f 658/664 755/762 659/665
f 659/665 755/762 756/763
f 659/665 756/763 660/666
f 660/666 756/763 757/764
f 660/666 757/764 661/667
f 661/667 757/764 758/765
f 661/667 758/765 662/668
f 662/668 758/765 759/766
f 662/668 759/766 663/669
f 663/669 759/766 760/767
f 663/669 760/767 664/670
f 664/670 760/767 761/768
f 664/670 761/768 665/671
f 665/671 761/768 762/769
f 665/671 762/769 666/672
f 666/672 762/769 763/770
f 666/672 763/770 667/673
f 667/673 763/770 764/771
f 667/673 764/771 668/674
f 668/674 764/771 765/772
f 668/674 765/772 669/675
f 669/675 765/772 766/773
f 669/675 766/773 670/676
f 670/676 766/773 767/774
f 670/676 767/774 671/677
f 671/677 767/774 768/775
f 671/677 768/775 672/678
f 672/678 768/775 673/776
f 672/678 673/776 577/679
f 673/680 1/777 2/778
f 673/680 2/778 674/681
f 674/681 2/778 3/779
f 674/681 3/779 675/682
f 675/682 3/779 4/780
f 675/682 4/780 676/683
f 676/683 4/780 5/781
f 676/683 5/781 677/684
f 677/684 5/781 6/782
f 677/684 6/782 678/685
f 678/685 6/782 7/783
f 678/685 7/783 679/686
f 679/686 7/783 8/784
f 679/686 8/784 680/687
f 680/687 8/784 9/785
f 680/687 9/785 681/688
f 681/688 9/785 10/786
f 681/688 10/786 682/689
f 682/689 10/786 11/787
f 682/689 11/787 683/690
f 683/690 11/787 12/788
f 683/690 12/788 684/691
f 684/691 12/788 13/789
f 684/691 13/789 685/692
f 685/692 13/789 14/790
f 685/692 14/790 686/693
f 686/693 14/790 15/791
f 686/693 15/791 687/694
f 687/694 15/791 16/792
f 687/694 16/792 688/695
f 688/695 16/792 17/793
f 688/695 17/793 689/696
f 689/696 17/793 18/794
f 689/696 18/794 690/697
f 690/697 18/794 19/795
f 690/697 19/795 691/698
f 691/698 19/795 20/796
f 691/698 20/796 692/699
f 692/699 20/796 21/797
f 692/699 21/797 693/700
f 693/700 21/797 22/798
f 693/700 22/798 694/701
f 694/701 22/798 23/799
f 694/701 23/799 695/702
f 695/702 23/799 24/800
f 695/702 24/800 696/703
f 696/703 24/800 25/801
f 696/703 25/801 697/704
f 697/704 25/801 26/802
f 697/704 26/802 698/705
f 698/705 26/802 27/803
f 698/705 27/803 699/706
f 699/706 27/803 28/804
f 699/706 28/804 700/707
f 700/707 28/804 29/805
f 700/707 29/805 701/708
f 701/708 29/805 30/806
f 701/708 30/806 702/709
f 702/709 30/806 31/807
f 702/709 31/807 703/710
f 703/710 31/807 32/808
f 703/710 32/808 704/711
f 704/711 32/808 33/809
f 704/711 33/809 705/712
f 705/712 33/809 34/810
f 705/712 34/810 706/713
f 706/713 34/810 35/811
f 706/713 35/811 707/714
f 707/714 35/811 36/812
f 707/714 36/812 708/715
f 708/715 36/812 37/813
f 708/715 37/813 709/716
f 709/716 37/813 38/814
f 709/716 38/814 710/717
f 710/717 38/814 39/815
f 710/717 39/815 711/718
f 711/718 39/815 40/816
f 711/718 40/816 712/719
f 712/719 40/816 41/817
f 712/719 41/817 713/720
f 713/720 41/817 42/818
f 713/720 42/818 714/721
f 714/721 42/818 43/819
f 714/721 43/819 715/722
f 715/722 43/819 44/820
f 715/722 44/820 716/723
f 716/723 44/820 45/821
f 716/723 45/821 717/724
f 717/724 45/821 46/822
f 717/724 46/822 718/725
f 718/725 46/822 47/823
f 718/725 47/823 719/726
f 719/726 47/823 48/824
f 719/726 48/824 720/727
f 720/727 48/824 49/825
f 720/727 49/825 721/728
f 721/728 49/825 50/826
f 721/728 50/826 722/729
f 722/729 50/826 51/827
f 722/729 51/827 723/730
f 723/730 51/827 52/828
f 723/730 52/828 724/731
f 724/731 52/828 53/829
f 724/731 53/829 725/732
f 725/732 53/829 54/830
f 725/732 54/830 726/733
f 726/733 54/830 55/831
f 726/733 55/831 727/734
f 727/734 55/831 56/832
f 727/734 56/832 728/735
f 728/735 56/832 57/833
f 728/735 57/833 729/736
f 729/736 57/833 58/834
f 729/736 58/834 730/737
f 730/737 58/834 59/835
f 730/737 59/835 731/738
f 731/738 59/835 60/836
f 731/738 60/836 732/739
f 732/739 60/836 61/837
f 732/739 61/837 733/740
f 733/740 61/837 62/838
f 733/740 62/838 734/741
f 734/741 62/838 63/839
f 734/741 63/839 735/742
f 735/742 63/839 64/840
f 735/742 64/840 736/743
f 736/743 64/840 65/841
f 736/743 65/841 737/744
f 737/744 65/841 66/842
f 737/744 66/842 738/745
f 738/745 66/842 67/843
f 738/745 67/843 739/746
f 739/746 67/843 68/844
f 739/746 68/844 740/747
f 740/747 68/844 69/845
f 740/747 69/845 741/748
f 741/748 69/845 70/846
f 741/748 70/846 742/749
f 742/749 70/846 71/847
f 742/749 71/847 743/750
f 743/750 71/847 72/848
f 743/750 72/848 744/751
f 744/751 72/848 73/849
f 744/751 73/849 745/752
f 745/752 73/849 74/850
f 745/752 74/850 746/753
f 746/753 74/850 75/851
f 746/753 75/851 747/754
f 747/754 75/851 76/852
f 747/754 76/852 748/755
f 748/755 76/852 77/853
f 748/755 77/853 749/756
f 749/756 77/853 78/854
f 749/756 78/854 750/757
f 750/757 78/854 79/855
f 750/757 79/855 751/758
f 751/758 79/855 80/856
f 751/758 80/856 752/759
f 752/759 80/856 81/857
f 752/759 81/857 753/760
f 753/760 81/857 82/858
f 753/760 82/858 754/761
f 754/761 82/858 83/859
f 754/761 83/859 755/762
f 755/762 83/859 84/860
f 755/762 84/860 756/763
f 756/763 84/860 85/861
f 756/763 85/861 757/764
f 757/764 85/861 86/862
f 757/764 86/862 758/765
f 758/765 86/862 87/863
f 758/765 87/863 759/766
f 759/766 87/863 88/864
f 759/766 88/864 760/767
f 760/767 88/864 89/865
f 760/767 89/865 761/768
f 761/768 89/865 90/866
f 761/768 90/866 762/769
f 762/769 90/866 91/867
f 762/769 91/867 763/770
f 763/770 91/867 92/868
f 763/770 92/868 764/771
f 764/771 92/868 93/869
f 764/771 93/869 765/772
f 765/772 93/869 94/870
f 765/772 94/870 766/773
f 766/773 94/870 95/871
f 766/773 95/871 767/774
f 767/774 95/871 96/872
f 767/774 96/872 768/775
f 768/775 96/872 1/873
f 768/775 1/873 673/776
