# Cylinder
v 1 -1 0
v 0.9510565162951535 -1 0.3090169943749474
v 0.8090169943749475 -1 0.5877852522924731
v 0.5877852522924731 -1 0.8090169943749475
v 0.30901699437494745 -1 0.9510565162951535
v 6.123233995736766e-17 -1 1
v -0.30901699437494734 -1 0.9510565162951536
v -0.587785252292473 -1 0.8090169943749475
v -0.8090169943749473 -1 0.5877852522924732
v -0.9510565162951535 -1 0.3090169943749475
v -1 -1 1.2246467991473532e-16
v -0.9510565162951538 -1 -0.3090169943749469
v -0.8090169943749475 -1 -0.587785252292473
v -0.5877852522924732 -1 -0.8090169943749473
v -0.30901699437494756 -1 -0.9510565162951535
v -1.8369701987210297e-16 -1 -1
v 0.30901699437494723 -1 -0.9510565162951536
v 0.5877852522924729 -1 -0.8090169943749476
v 0.8090169943749473 -1 -0.5877852522924734
v 0.9510565162951535 -1 -0.3090169943749476
v 1 1 0
v 0.9510565162951535 1 0.3090169943749474
v 0.8090169943749475 1 0.5877852522924731
v 0.5877852522924731 1 0.8090169943749475
v 0.30901699437494745 1 0.9510565162951535
v 6.123233995736766e-17 1 1
v -0.30901699437494734 1 0.9510565162951536
v -0.587785252292473 1 0.8090169943749475
v -0.8090169943749473 1 0.5877852522924732
v -0.9510565162951535 1 0.3090169943749475
v -1 1 1.2246467991473532e-16
v -0.9510565162951538 1 -0.3090169943749469
v -0.8090169943749475 1 -0.587785252292473
v -0.5877852522924732 1 -0.8090169943749473
v -0.30901699437494756 1 -0.9510565162951535
v -1.8369701987210297e-16 1 -1
v 0.30901699437494723 1 -0.9510565162951536
v 0.5877852522924729 1 -0.8090169943749476
v 0.8090169943749473 1 -0.5877852522924734
v 0.9510565162951535 1 -0.3090169943749476
v 0 -1 0
v 0 1 0
f 1 2 22
f 1 22 21
f 41 2 1
f 42 21 22
f 2 3 23
f 2 23 22
f 41 3 2
f 42 22 23
f 3 4 24
f 3 24 23
f 41 4 3
f 42 23 24
f 4 5 25
f 4 25 24
f 41 5 4
f 42 24 25
f 5 6 26
f 5 26 25
f 41 6 5
f 42 25 26
f 6 7 27
f 6 27 26
f 41 7 6
f 42 26 27
f 7 8 28
f 7 28 27
f 41 8 7
f 42 27 28
f 8 9 29
f 8 29 28
f 41 9 8
f 42 28 29
f 9 10 30
f 9 30 29
f 41 10 9
f 42 29 30
f 10 11 31
f 10 31 30
f 41 11 10
f 42 30 31
f 11 12 32
f 11 32 31
f 41 12 11
f 42 31 32
f 12 13 33
f 12 33 32
f 41 13 12
f 42 32 33
f 13 14 34
f 13 34 33
f 41 14 13
f 42 33 34
f 14 15 35
f 14 35 34
f 41 15 14
f 42 34 35
f 15 16 36
f 15 36 35
f 41 16 15
f 42 35 36
f 16 17 37
f 16 37 36
f 41 17 16
f 42 36 37
f 17 18 38
f 17 38 37
f 41 18 17
f 42 37 38
f 18 19 39
f 18 39 38
f 41 19 18
f 42 38 39
f 19 20 40
f 19 40 39
f 41 20 19
f 42 39 40
f 20 1 21
f 20 21 40
f 41 1 20
f 42 40 21
