# Torso-like tube
v 0.5642214063650529 -1.25 0
v 0.48863007127111885 -1.25 0.2226128944958107
v 0.2821107031825265 -1.25 0.38557684368671424
v 3.4548596965769006e-17 -1.25 0.44522578899162146
v -0.28211070318252635 -1.25 0.3855768436867143
v -0.48863007127111885 -1.25 0.2226128944958107
v -0.5642214063650529 -1.25 5.452443373864441e-17
v -0.4886300712711189 -1.25 -0.22261289449581062
v -0.28211070318252673 -1.25 -0.3855768436867142
v -1.03645790897307e-16 -1.25 -0.44522578899162146
v 0.2821107031825265 -1.25 -0.38557684368671424
v 0.4886300712711186 -1.25 -0.22261289449581093
v 0.6516542112549846 -1 0
v 0.5643491014299279 -1 0.23161209223472556
v 0.32582710562749234 -1 0.4011639113978737
v 3.99023121982155e-17 -1 0.4632241844694512
v -0.3258271056274921 -1 0.4011639113978738
v -0.5643491014299279 -1 0.23161209223472556
v -0.6516542112549846 -1 5.672860147981565e-17
v -0.564349101429928 -1 -0.23161209223472545
v -0.32582710562749256 -1 -0.40116391139787366
v -1.1970693659464649e-16 -1 -0.4632241844694512
v 0.32582710562749234 -1 -0.4011639113978737
v 0.5643491014299277 -1 -0.23161209223472579
v 0.744130370709264 -0.75 0
v 0.6444358047617544 -0.75 0.2392675547549528
v 0.37206518535463207 -0.75 0.4144235614383466
v 4.5564843831871674e-17 -0.75 0.47853510950990563
v -0.37206518535463184 -0.75 0.41442356143834663
v -0.6444358047617544 -0.75 0.2392675547549528
v -0.744130370709264 -0.75 5.86036490140934e-17
v -0.6444358047617545 -0.75 -0.23926755475495268
v -0.37206518535463234 -0.75 -0.4144235614383465
v -1.3669453149561503e-16 -0.75 -0.47853510950990563
v 0.37206518535463207 -0.75 -0.4144235614383466
v 0.6444358047617542 -0.75 -0.23926755475495304
v 0.8251962920946961 -0.5 0
v 0.7146409520627308 -0.5 0.24510330247561488
v 0.4125981460473482 -0.5 0.42453137299068755
v 5.05286998891017e-17 -0.5 0.4902066049512298
v -0.4125981460473479 -0.5 0.4245313729906876
v -0.7146409520627308 -0.5 0.24510330247561488
v -0.8251962920946961 -0.5 6.003299496744147e-17
v -0.7146409520627309 -0.5 -0.24510330247561476
v -0.41259814604734846 -0.5 -0.4245313729906875
v -1.515860996673051e-16 -0.5 -0.4902066049512298
v 0.4125981460473482 -0.5 -0.42453137299068755
v 0.7146409520627306 -0.5 -0.24510330247561513
v 0.8804285212498875 -0.25 0
v 0.76247346561877 -0.25 0.24875649686842574
v 0.44021426062494384 -0.25 0.4308588912889617
v 5.391069852133561e-17 -0.25 0.49751299373685154
v -0.4402142606249435 -0.25 0.43085889128896177
v -0.76247346561877 -0.25 0.24875649686842574
v -0.8804285212498875 -0.25 6.092776953140524e-17
v -0.7624734656187702 -0.25 -0.24875649686842563
v -0.4402142606249441 -0.25 -0.43085889128896165
v -1.6173209556400681e-16 -0.25 -0.49751299373685154
v 0.44021426062494384 -0.25 -0.4308588912889617
v 0.7624734656187697 -0.25 -0.248756496868426
v 0.9 0 0
v 0.7794228634059949 0 0.24999999999999997
v 0.4500000000000001 0 0.4330127018922193
v 5.5109105961630896e-17 0 0.5
v -0.4499999999999998 0 0.43301270189221935
v -0.7794228634059949 0 0.24999999999999997
v -0.9 0 6.123233995736766e-17
v -0.779422863405995 0 -0.24999999999999986
v -0.4500000000000004 0 -0.43301270189221924
v -1.6532731788489269e-16 0 -0.5
v 0.4500000000000001 0 -0.4330127018922193
v 0.7794228634059945 0 -0.2500000000000002
v 0.8804285212498875 0.25 0
v 0.76247346561877 0.25 0.24875649686842574
v 0.44021426062494384 0.25 0.4308588912889617
v 5.391069852133561e-17 0.25 0.49751299373685154
v -0.4402142606249435 0.25 0.43085889128896177
v -0.76247346561877 0.25 0.24875649686842574
v -0.8804285212498875 0.25 6.092776953140524e-17
v -0.7624734656187702 0.25 -0.24875649686842563
v -0.4402142606249441 0.25 -0.43085889128896165
v -1.6173209556400681e-16 0.25 -0.49751299373685154
v 0.44021426062494384 0.25 -0.4308588912889617
v 0.7624734656187697 0.25 -0.248756496868426
v 0.8251962920946961 0.5 0
v 0.7146409520627308 0.5 0.24510330247561488
v 0.4125981460473482 0.5 0.42453137299068755
v 5.05286998891017e-17 0.5 0.4902066049512298
v -0.4125981460473479 0.5 0.4245313729906876
v -0.7146409520627308 0.5 0.24510330247561488
v -0.8251962920946961 0.5 6.003299496744147e-17
v -0.7146409520627309 0.5 -0.24510330247561476
v -0.41259814604734846 0.5 -0.4245313729906875
v -1.515860996673051e-16 0.5 -0.4902066049512298
v 0.4125981460473482 0.5 -0.42453137299068755
v 0.7146409520627306 0.5 -0.24510330247561513
v 0.744130370709264 0.75 0
v 0.6444358047617544 0.75 0.2392675547549528
v 0.37206518535463207 0.75 0.4144235614383466
v 4.5564843831871674e-17 0.75 0.47853510950990563
v -0.37206518535463184 0.75 0.41442356143834663
v -0.6444358047617544 0.75 0.2392675547549528
v -0.744130370709264 0.75 5.86036490140934e-17
v -0.6444358047617545 0.75 -0.23926755475495268
v -0.37206518535463234 0.75 -0.4144235614383465
v -1.3669453149561503e-16 0.75 -0.47853510950990563
v 0.37206518535463207 0.75 -0.4144235614383466
v 0.6444358047617542 0.75 -0.23926755475495304
v 0.6516542112549846 1 0
v 0.5643491014299279 1 0.23161209223472556
v 0.32582710562749234 1 0.4011639113978737
v 3.99023121982155e-17 1 0.4632241844694512
v -0.3258271056274921 1 0.4011639113978738
v -0.5643491014299279 1 0.23161209223472556
v -0.6516542112549846 1 5.672860147981565e-17
v -0.564349101429928 1 -0.23161209223472545
v -0.32582710562749256 1 -0.40116391139787366
v -1.1970693659464649e-16 1 -0.4632241844694512
v 0.32582710562749234 1 -0.4011639113978737
v 0.5643491014299277 1 -0.23161209223472579
v 0.5642214063650529 1.25 0
v 0.48863007127111885 1.25 0.2226128944958107
v 0.2821107031825265 1.25 0.38557684368671424
v 3.4548596965769006e-17 1.25 0.44522578899162146
v -0.28211070318252635 1.25 0.3855768436867143
v -0.48863007127111885 1.25 0.2226128944958107
v -0.5642214063650529 1.25 5.452443373864441e-17
v -0.4886300712711189 1.25 -0.22261289449581062
v -0.28211070318252673 1.25 -0.3855768436867142
v -1.03645790897307e-16 1.25 -0.44522578899162146
v 0.2821107031825265 1.25 -0.38557684368671424
v 0.4886300712711186 1.25 -0.22261289449581093
f 1 2 14
f 1 14 13
f 2 3 15
f 2 15 14
f 3 4 16
f 3 16 15
f 4 5 17
f 4 17 16
f 5 6 18
f 5 18 17
f 6 7 19
f 6 19 18
f 7 8 20
f 7 20 19
f 8 9 21
f 8 21 20
f 9 10 22
f 9 22 21
f 10 11 23
f 10 23 22
f 11 12 24
f 11 24 23
f 12 1 13
f 12 13 24
f 13 14 26
f 13 26 25
f 14 15 27
f 14 27 26
f 15 16 28
f 15 28 27
f 16 17 29
f 16 29 28
f 17 18 30
f 17 30 29
f 18 19 31
f 18 31 30
f 19 20 32
f 19 32 31
f 20 21 33
f 20 33 32
f 21 22 34
f 21 34 33
f 22 23 35
f 22 35 34
f 23 24 36
f 23 36 35
f 24 13 25
f 24 25 36
f 25 26 38
f 25 38 37
f 26 27 39
f 26 39 38
f 27 28 40
f 27 40 39
f 28 29 41
f 28 41 40
f 29 30 42
f 29 42 41
f 30 31 43
f 30 43 42
f 31 32 44
f 31 44 43
f 32 33 45
f 32 45 44
f 33 34 46
f 33 46 45
f 34 35 47
f 34 47 46
f 35 36 48
f 35 48 47
f 36 25 37
f 36 37 48
f 37 38 50
f 37 50 49
f 38 39 51
f 38 51 50
f 39 40 52
f 39 52 51
f 40 41 53
f 40 53 52
f 41 42 54
f 41 54 53
f 42 43 55
f 42 55 54
f 43 44 56
f 43 56 55
f 44 45 57
f 44 57 56
f 45 46 58
f 45 58 57
f 46 47 59
f 46 59 58
f 47 48 60
f 47 60 59
f 48 37 49
f 48 49 60
f 49 50 62
f 49 62 61
f 50 51 63
f 50 63 62
f 51 52 64
f 51 64 63
f 52 53 65
f 52 65 64
f 53 54 66
f 53 66 65
f 54 55 67
f 54 67 66
f 55 56 68
f 55 68 67
f 56 57 69
f 56 69 68
f 57 58 70
f 57 70 69
f 58 59 71
f 58 71 70
f 59 60 72
f 59 72 71
f 60 49 61
f 60 61 72
f 61 62 74
f 61 74 73
f 62 63 75
f 62 75 74
f 63 64 76
f 63 76 75
f 64 65 77
f 64 77 76
f 65 66 78
f 65 78 77
f 66 67 79
f 66 79 78
f 67 68 80
f 67 80 79
f 68 69 81
f 68 81 80
f 69 70 82
f 69 82 81
f 70 71 83
f 70 83 82
f 71 72 84
f 71 84 83
f 72 61 73
f 72 73 84
f 73 74 86
f 73 86 85
f 74 75 87
f 74 87 86
f 75 76 88
f 75 88 87
f 76 77 89
f 76 89 88
f 77 78 90
f 77 90 89
f 78 79 91
f 78 91 90
f 79 80 92
f 79 92 91
f 80 81 93
f 80 93 92
f 81 82 94
f 81 94 93
f 82 83 95
f 82 95 94
f 83 84 96
f 83 96 95
f 84 73 85
f 84 85 96
f 85 86 98
f 85 98 97
f 86 87 99
f 86 99 98
f 87 88 100
f 87 100 99
f 88 89 101
f 88 101 100
f 89 90 102
f 89 102 101
f 90 91 103
f 90 103 102
f 91 92 104
f 91 104 103
f 92 93 105
f 92 105 104
f 93 94 106
f 93 106 105
f 94 95 107
f 94 107 106
f 95 96 108
f 95 108 107
f 96 85 97
f 96 97 108
f 97 98 110
f 97 110 109
f 98 99 111
f 98 111 110
f 99 100 112
f 99 112 111
f 100 101 113
f 100 113 112
f 101 102 114
f 101 114 113
f 102 103 115
f 102 115 114
f 103 104 116
f 103 116 115
f 104 105 117
f 104 117 116
f 105 106 118
f 105 118 117
f 106 107 119
f 106 119 118
f 107 108 120
f 107 120 119
f 108 97 109
f 108 109 120
f 109 110 122
f 109 122 121
f 110 111 123
f 110 123 122
f 111 112 124
f 111 124 123
f 112 113 125
f 112 125 124
f 113 114 126
f 113 126 125
f 114 115 127
f 114 127 126
f 115 116 128
f 115 128 127
f 116 117 129
f 116 129 128
f 117 118 130
f 117 130 129
f 118 119 131
f 118 131 130
f 119 120 132
f 119 132 131
f 120 109 121
f 120 121 132
